<?xml version="1.0" encoding="utf-8"?>
<!-- Generator: Adobe Illustrator 17.0.0, SVG Export Plug-In . SVG Version: 6.00 Build 0)  -->
<!DOCTYPE svg PUBLIC "-//W3C//DTD SVG 1.1//EN" "http://www.w3.org/Graphics/SVG/1.1/DTD/svg11.dtd">
<svg version="1.1" id="Layer_1" xmlns="http://www.w3.org/2000/svg" xmlns:xlink="http://www.w3.org/1999/xlink" x="0px" y="0px"
	 width="460.184px" height="878.255px" viewBox="0 0 460.184 878.255" enable-background="new 0 0 460.184 878.255"
	 xml:space="preserve">
<path d="M351.447,524.025c-31.057-31.057-73.963-50.267-121.355-50.267c-47.392,0-90.298,19.21-121.355,50.267
	C77.68,555.082,58.471,597.988,58.471,645.38c0,47.392,19.21,90.298,50.266,121.355c31.057,31.057,73.964,50.266,121.355,50.266
	c47.392,0,90.298-19.209,121.355-50.266c31.057-31.057,50.267-73.963,50.267-121.355
	C401.714,597.988,382.504,555.082,351.447,524.025 M230.092,469.095c48.679,0,92.75,19.732,124.652,51.633
	c31.901,31.901,51.633,75.973,51.633,124.652c0,48.679-19.732,92.751-51.633,124.652c-31.901,31.901-75.973,51.633-124.652,51.633
	s-92.75-19.731-124.652-51.633c-31.901-31.901-51.633-75.973-51.633-124.652c0-48.679,19.732-92.75,51.633-124.652
	C137.342,488.827,181.413,469.095,230.092,469.095z"/>
<path d="M70.371,631.518h-0.003l0.023-0.247c0.795-9.12,2.356-18.022,4.614-26.64l0.139-0.529l0.005-0.021
	c0.123-0.462,0.248-0.924,0.375-1.384l0.119-0.43c0.123-0.442,0.248-0.883,0.374-1.323l0.152-0.524l0.035-0.117
	c0.133-0.453,0.267-0.906,0.403-1.358l0.027-0.091l0.159-0.521l0.007-0.021c0.105-0.34,0.209-0.68,0.316-1.018l0.164-0.518
	l0.165-0.518l0.168-0.517l0.14-0.429l0.033-0.1l0.175-0.529l0.046-0.137c0.138-0.414,0.279-0.828,0.421-1.241l0.07-0.202
	l0.182-0.526l0.368-1.044l0.001-0.004l0.187-0.523l0.048-0.132c0.15-0.415,0.302-0.83,0.455-1.243l0.069-0.188l0.194-0.52
	c0.141-0.375,0.283-0.748,0.427-1.121l0.232-0.598c0.167-0.43,0.337-0.858,0.508-1.286l0.037-0.092l0.207-0.513l0.414-1.016
	l0.332-0.798l0.436-1.031l0.322-0.748c0.171-0.394,0.343-0.788,0.517-1.181l0.231-0.519c0.181-0.405,0.363-0.808,0.547-1.211
	l0.04-0.088l0.23-0.501l0.014-0.03l0.467-1.001l0.357-0.753c0.159-0.334,0.319-0.667,0.481-0.999l0.397-0.811
	c0.172-0.349,0.345-0.698,0.52-1.045l0.326-0.646c0.182-0.359,0.366-0.717,0.55-1.074l0.032-0.062l0.253-0.487l0.058-0.111
	l0.521-0.988l0.365-0.681c0.186-0.347,0.374-0.692,0.563-1.037l0.426-0.773l0.492-0.88l0.465-0.821
	c0.173-0.303,0.346-0.605,0.521-0.906l0.415-0.711c0.177-0.302,0.355-0.605,0.535-0.906L94.317,560v0.106
	c6.413-10.192,13.942-19.611,22.416-28.085c29.01-29.01,69.09-46.955,113.359-46.955c44.269,0,84.348,17.944,113.359,46.955
	c29.011,29.011,46.955,69.091,46.955,113.359c0,44.27-17.945,84.349-46.955,113.359c-29.011,29.011-69.09,46.955-113.359,46.955
	c-44.27,0-84.349-17.944-113.359-46.955c-8.474-8.474-16.002-17.894-22.416-28.085v0.105l-2.052-3.455
	c-0.192-0.322-0.382-0.646-0.572-0.969l-0.081-0.138l-0.267-0.458l-0.023-0.04c-0.225-0.388-0.448-0.777-0.67-1.168l-0.098-0.172
	l-0.261-0.461l-0.508-0.909l-0.361-0.656c-0.203-0.371-0.405-0.742-0.605-1.115l-0.06-0.111l-0.251-0.469
	c-0.239-0.448-0.476-0.897-0.71-1.348l-0.056-0.108c-7.43-14.302-12.766-29.864-15.607-46.282l-0.091-0.529
	c-0.081-0.479-0.16-0.958-0.237-1.438l-0.025-0.154l-0.084-0.531l-0.159-1.044l-0.003-0.022l-0.078-0.534l-0.021-0.145
	c-0.066-0.455-0.13-0.911-0.192-1.367l-0.013-0.092l-0.071-0.536l-0.003-0.021c-0.063-0.482-0.124-0.966-0.184-1.449l-0.017-0.14
	l-0.064-0.538c-0.056-0.473-0.109-0.947-0.161-1.422l-0.021-0.195l-0.105-0.971l-0.001-0.011l-0.033-0.307h0.004
	c-0.527-5.286-0.797-10.648-0.797-16.073C69.778,640.709,69.98,636.087,70.371,631.518 M91.986,629.186v-60.578
	c-10.177,18.269-16.835,38.767-19.057,60.578H91.986z M368.13,568.601v60.585h19.061c-1.15-11.296-3.493-22.249-6.902-32.727
	C377.122,586.725,373.034,577.404,368.13,568.601z M386.948,663.785H368.13v58.373c4.733-8.494,8.704-17.462,11.818-26.811
	C383.312,685.248,385.684,674.687,386.948,663.785z M366.964,661.453h20.303c0.534-5.285,0.808-10.647,0.808-16.073
	c0-4.671-0.204-9.294-0.602-13.862h-20.509h-1.166v-1.166v-65.898c-6.718-11.241-14.79-21.579-23.996-30.784
	c-28.589-28.589-68.086-46.272-111.711-46.272c-43.625,0-83.122,17.684-111.711,46.272c-9.237,9.237-17.333,19.613-24.065,30.899
	v65.783l0,1.166h-1.166H72.711c-0.397,4.568-0.602,9.191-0.602,13.862c0,5.426,0.274,10.788,0.808,16.073h20.234h1.166v1.166v63.572
	c6.731,11.286,14.827,21.662,24.065,30.899c28.589,28.589,68.085,46.272,111.711,46.272c43.625,0,83.121-17.683,111.711-46.272
	c9.205-9.206,17.278-19.543,23.996-30.784v-63.687v-1.166H366.964z M91.986,663.785H73.171c2.435,20.985,8.982,40.716,18.815,58.367
	V663.785z"/>
<path fill-rule="evenodd" clip-rule="evenodd" d="M149.129,622.551c12.608,0,22.829,10.221,22.829,22.829
	c0,12.609-10.221,22.829-22.829,22.829c-12.609,0-22.829-10.221-22.829-22.829C126.3,632.771,136.521,622.551,149.129,622.551"/>
<path fill-rule="evenodd" clip-rule="evenodd" d="M311.055,622.551c-12.609,0-22.829,10.221-22.829,22.829
	c0,12.609,10.221,22.829,22.829,22.829c12.608,0,22.829-10.221,22.829-22.829C333.884,632.771,323.664,622.551,311.055,622.551"/>
<path d="M57.439,554.598l-0.391,1.216l-0.207-0.068c-13.913,26.837-21.777,57.318-21.777,89.634
	c0,53.857,21.83,102.615,57.122,137.905c35.291,35.292,84.049,57.122,137.905,57.122c53.855,0,102.615-21.83,137.905-57.122
	c35.292-35.29,57.122-84.049,57.122-137.905c0-53.855-21.83-102.615-57.122-137.905c-35.29-35.292-84.05-57.122-137.905-57.122
	c-53.856,0-102.615,21.83-137.905,57.122C78.375,521.286,66.626,537.162,57.439,554.598 M361.777,4.731l-0.01,31.504
	c-0.101,228.351-0.169,384.148,43.855,518.767c13.973,27.079,21.863,57.808,21.863,90.378c0,54.508-22.095,103.857-57.816,139.577
	c-35.719,35.721-85.071,57.816-139.577,57.816c-54.508,0-103.857-22.095-139.577-57.816C54.795,749.237,32.7,699.888,32.7,645.38
	c0-33.109,8.154-64.316,22.562-91.722c43.586-134.313,43.523-289.83,43.422-517.423L98.674,4.731H65.44
	c-16.691,0-31.87,6.832-42.874,17.836C11.563,33.57,4.731,48.749,4.731,65.44v763.144c0,12.355,5.058,23.592,13.203,31.738
	c8.146,8.145,19.383,13.203,31.738,13.203h360.842c12.355,0,23.59-5.057,31.736-13.203c8.146-8.146,13.205-19.383,13.205-31.738
	V65.44c0-16.691-6.833-31.87-17.836-42.873c-11.004-11.004-26.183-17.836-42.874-17.836H361.777z M101.03,4.731l0.009,31.504
	c0.1,221.825,0.161,375.249-40.167,507.465c8.326-13.826,18.296-26.55,29.644-37.897c35.719-35.721,85.069-57.816,139.577-57.816
	c54.506,0,103.857,22.095,139.577,57.816c11.599,11.598,21.759,24.634,30.194,38.818c-40.612-132.424-40.551-286.046-40.452-508.386
	l0.01-31.504H101.03z M65.44,0h329.304c17.999,0,34.362,7.362,46.22,19.221c11.858,11.858,19.22,28.221,19.22,46.219v763.144
	c0,13.662-5.588,26.083-14.589,35.084c-8.999,8.999-21.42,14.588-35.082,14.588H49.672c-13.662,0-26.083-5.589-35.084-14.588
	C5.589,854.667,0,842.246,0,828.584V65.44c0-17.998,7.362-34.361,19.221-46.219C31.079,7.362,47.442,0,65.44,0z"/>
<path d="M314.12,135.267H146.064c-3.035,0-5.795,1.241-7.796,3.241c-1.999,2.001-3.24,4.76-3.24,7.796v34.01
	c0,3.036,1.241,5.795,3.24,7.796c2.001,2,4.761,3.241,7.796,3.241H314.12c3.036,0,5.795-1.241,7.796-3.241
	c2-2.001,3.241-4.76,3.241-7.796v-34.01c0-3.036-1.241-5.795-3.241-7.796C319.916,136.508,317.156,135.267,314.12,135.267
	 M146.064,132.902H314.12c3.682,0,7.033,1.509,9.461,3.936l0.005,0.005c2.427,2.428,3.936,5.779,3.936,9.461v34.01
	c0,3.682-1.509,7.033-3.936,9.461l-0.005,0.005c-2.428,2.427-5.779,3.936-9.461,3.936H146.064c-3.682,0-7.033-1.509-9.461-3.936
	l-0.005-0.005c-2.427-2.428-3.936-5.779-3.936-9.461v-34.01c0-3.682,1.509-7.033,3.936-9.461l0.005-0.005
	C139.031,134.411,142.382,132.902,146.064,132.902z"/>
<path d="M182.185,149.196c-3.609-3.609-8.602-5.846-14.113-5.846c-5.511,0-10.504,2.236-14.113,5.846
	c-3.609,3.609-5.845,8.602-5.845,14.113c0,5.511,2.236,10.504,5.845,14.113c3.61,3.609,8.602,5.845,14.113,5.845
	c5.511,0,10.503-2.236,14.113-5.845c3.61-3.609,5.846-8.602,5.846-14.113C188.031,157.797,185.795,152.805,182.185,149.196
	 M168.072,140.985c6.162,0,11.746,2.501,15.784,6.539c4.038,4.039,6.539,9.622,6.539,15.784c0,6.163-2.501,11.746-6.539,15.785
	c-4.038,4.038-9.622,6.539-15.784,6.539c-6.163,0-11.746-2.501-15.785-6.539c-4.038-4.039-6.539-9.622-6.539-15.785
	c0-6.162,2.501-11.746,6.539-15.784C156.326,143.486,161.91,140.985,168.072,140.985z"/>
<path fill-rule="evenodd" clip-rule="evenodd" d="M277.912,74.737c-0.1,4.189-2.951,7.165-7.123,7.301
	c-3.394,0.11-6.796,0.011-10.194,0.049c-1.605,0.017-1.709,0.196-1.041,1.74c1.276,2.948,2.056,5.959,2.263,9.217
	c0.38,5.974-4.338,11.71-12.637,9.765c-3.76-0.881-7-2.83-9.977-5.238c-0.699-0.565-1.432-1.099-2.06-1.734
	c-0.81-0.82-1.477-0.806-2.26,0.037c-1.36,1.465-2.839,2.815-4.476,3.966c-2.136,1.5-4.422,2.768-7.03,3.162
	c-5.589,0.843-10.452-3.116-10.969-8.858c-0.299-3.312,0.09-6.56,0.983-9.763c0.625-2.241,0.584-2.273-1.839-2.3
	c-2.399-0.026-4.797-0.006-7.197-0.007c-2.499-0.002-4.998,0.039-7.496-0.013c-2.82-0.058-3.716-0.974-3.736-3.828
	c-0.032-4.698-0.038-9.396,0.004-14.093c0.024-2.668,0.943-3.613,3.591-3.659c3.497-0.062,6.996-0.015,10.494-0.021
	c2.82-0.005,2.775,0.008,1.876-2.538c-0.829-2.346-1.581-4.71-1.54-7.264c0.106-6.607,5.708-10.863,12.049-9.074
	c3.516,0.992,6.533,2.916,9.364,5.163c0.391,0.31,0.774,0.631,1.15,0.959c2.66,2.317,2.669,2.328,5.217-0.295
	c1.813-1.865,3.73-3.612,5.793-5.192c1.929-1.479,4.081-2.501,6.51-2.805c5.879-0.736,10.434,3.291,10.945,9.253
	c0.269,3.137-0.309,6.154-1.3,9.11c-0.284,0.848-0.647,1.671-0.901,2.526c-0.136,0.456,0.126,0.789,0.633,0.674
	c4.246-0.967,8.548-0.37,12.821-0.436c5.019-0.077,8.017,2.959,8.081,7.901C277.941,70.538,277.962,72.639,277.912,74.737
	 M269.627,58.762c-2.998,0.052-5.998,0.031-8.997,0.003c-1.811-0.017-1.814-0.053-1.356-1.795c0.101-0.385,0.268-0.754,0.358-1.141
	c0.778-3.333,1.136-6.655,0.169-10.04c-1.207-4.222-5.628-8.427-10.9-8.176c-4.021,0.192-7.283,1.88-10.257,4.327
	c-1.539,1.267-2.928,2.716-4.381,4.088c-1.61,1.521-1.609,1.526-3.376,0.077c-0.231-0.19-0.419-0.433-0.655-0.616
	c-3.173-2.46-6.557-4.531-10.467-5.622c-6.985-1.951-13.741,3.074-13.915,10.302c-0.046,1.922,0.242,3.754,0.822,5.582
	c0.954,3.008,0.913,3.023-2.087,3.026c-2.599,0.003-5.202-0.083-7.797,0.02c-3.441,0.137-5.267,2.081-5.329,5.536
	c-0.041,2.299-0.008,4.598-0.009,6.898c-0.001,2.099,0.178,4.218-0.04,6.294c-0.406,3.872,2.69,6.499,6.215,6.257
	c4.178-0.287,8.393-0.054,12.591-0.07c1.105-0.005,1.657,0.133,1.204,1.526c-0.939,2.883-0.9,5.907-0.757,8.899
	c0.333,6.928,6.763,11.735,13.57,10.325c2.297-0.476,4.366-1.315,6.277-2.637c1.563-1.081,3.13-2.159,4.414-3.572
	c0.787-0.866,1.433-0.743,2.292-0.065c1.408,1.11,2.844,2.219,4.396,3.106c3.658,2.091,7.463,3.802,11.843,3.532
	c6.191-0.383,9.896-5.771,10.052-10.074c0.121-3.341-0.289-6.574-1.585-9.655c-0.485-1.153-0.067-1.395,0.982-1.387
	c2.599,0.021,5.206,0.133,7.796-0.025c5.377-0.329,9.006-4.608,8.897-9.058c-0.046-1.898-0.136-3.81,0.022-5.696
	C280.095,63.265,275.645,58.659,269.627,58.762z"/>
<path fill-rule="evenodd" clip-rule="evenodd" d="M204.798,79.191c-2.495,0-4.991-0.034-7.485,0.015
	c-1.168,0.023-1.57-0.446-1.559-1.595c0.042-4.291,0.037-8.583,0.004-12.875c-0.009-1.068,0.48-1.374,1.448-1.37
	c4.991,0.019,9.982,0.059,14.971-0.019c1.536-0.024,1.479,0.822,1.524,1.891c0.054,1.272-0.383,1.769-1.707,1.731
	c-2.792-0.081-5.588-0.027-8.383-0.026c-0.699,0-1.398,0.021-2.095,0.005c-0.714-0.015-1.124,0.245-1.115,1.024
	c0.009,0.751,0.06,1.408,1.082,1.376c0.997-0.031,1.996-0.003,2.994-0.002c2.296,0.002,4.592,0.038,6.886-0.011
	c1.151-0.025,1.888,0.135,1.833,1.578c-0.068,1.791-0.085,1.968-1.734,1.995c-2.594,0.042-5.19,0.011-7.785,0.012
	c-0.699,0.001-1.399,0.036-2.096,0c-0.927-0.048-1.177,0.426-1.196,1.266c-0.021,0.968,0.248,1.455,1.34,1.439
	c3.293-0.048,6.587-0.029,9.88-0.007c2.058,0.014,2.13,0.174,2.095,2.207c-0.018,1.045-0.406,1.388-1.418,1.37
	c-2.494-0.046-4.99-0.015-7.485-0.015C204.798,79.184,204.798,79.188,204.798,79.191"/>
<path fill-rule="evenodd" clip-rule="evenodd" d="M216.083,71.19c0-2.192,0.019-4.384-0.009-6.575
	c-0.011-0.882,0.347-1.275,1.231-1.24c0.696,0.028,1.396,0.026,2.092-0.003c1.051-0.043,1.345,0.489,1.334,1.468
	c-0.036,3.088,0.033,6.177-0.027,9.265c-0.023,1.202,0.458,1.55,1.583,1.522c2.29-0.056,4.583-0.057,6.873-0.009
	c1.63,0.035,2.554,1.643,1.829,3.085c-0.199,0.395-0.583,0.48-1.003,0.48c-4.185-0.001-8.369-0.01-12.553,0.019
	c-1.037,0.007-1.387-0.44-1.368-1.437c0.042-2.191,0.013-4.383,0.013-6.575C216.079,71.19,216.081,71.19,216.083,71.19"/>
<path fill-rule="evenodd" clip-rule="evenodd" d="M258.741,93.003c-0.036,5.675-4.256,8.525-9.529,6.789
	c-1.714-0.564-3.305-1.431-4.782-2.448c-5.807-3.996-10.516-9.164-15.175-14.378c-0.155-0.174-0.145-0.496-0.211-0.75
	c0.29-0.052,0.579-0.125,0.872-0.152c1.086-0.102,1.537,0.777,2.142,1.41c2.48,2.598,4.88,5.281,7.456,7.78
	c2.647,2.568,5.433,5,8.777,6.679c1.362,0.684,2.761,1.107,4.307,1.045c2.762-0.111,4.617-1.882,4.862-4.659
	c0.236-2.684-0.719-5.087-1.657-7.511c-0.207-0.535-1.087-1.237-0.104-1.735c0.966-0.49,1.13,0.504,1.373,1.096
	C258.018,88.483,258.902,90.816,258.741,93.003"/>
<path fill-rule="evenodd" clip-rule="evenodd" d="M215.334,91.575c-0.065-2.732,0.719-5.312,1.401-7.908
	c0.075-0.285,0.253-0.542,0.355-0.823c0.247-0.687,0.762-0.985,1.394-0.687c0.613,0.289,0.289,0.816,0.087,1.271
	c-0.853,1.924-1.254,3.982-1.652,6.025c-0.363,1.859-0.439,3.741,0.157,5.609c1.022,3.201,3.652,4.563,6.772,3.379
	c2.27-0.861,4.182-2.289,5.911-3.971c0.786-0.765,1.565-1.539,2.325-2.33c0.363-0.378,0.646-0.286,0.985,0.018
	c0.352,0.315,0.472,0.698,0.152,1.028c-2.932,3.017-5.941,5.999-10.288,6.797c-3.716,0.682-6.913-1.984-7.466-6.018
	C215.357,93.177,215.374,92.372,215.334,91.575"/>
<path fill-rule="evenodd" clip-rule="evenodd" d="M212.273,51.119c-0.004,2.975,1.113,5.632,2.34,8.258
	c0.158,0.339,0.416,0.762-0.077,1.021c-0.498,0.262-1.119,0.122-1.295-0.341c-1.439-3.793-3.232-7.54-2.022-11.79
	c0.75-2.637,3.193-4.175,5.96-3.759c3.132,0.471,5.852,1.907,8.406,3.682c1.553,1.08,3.044,2.251,4.534,3.418
	c0.416,0.327,0.597,0.817,0.171,1.293c-0.466,0.523-0.877,0.19-1.263-0.141c-2.118-1.817-4.293-3.553-6.721-4.952
	c-1.47-0.846-2.961-1.58-4.66-1.926c-3.321-0.678-5.201,0.682-5.37,4.039C212.256,50.32,212.273,50.72,212.273,51.119"/>
<path fill-rule="evenodd" clip-rule="evenodd" d="M255.533,50.475c-0.094,3.635-1.323,6.999-2.558,10.358
	c-0.163,0.444-0.446,0.973-1.083,0.74c-0.8-0.295-0.56-0.923-0.365-1.491c0.644-1.881,1.47-3.72,1.904-5.647
	c0.473-2.1,1.135-4.192,0.597-6.457c-0.859-3.613-3.356-5.175-6.859-4.042c-1.734,0.56-3.217,1.561-4.595,2.729
	c-0.454,0.385-0.881,0.812-1.373,1.143c-0.375,0.253-0.82,0.098-1.039-0.253c-0.115-0.184-0.064-0.66,0.092-0.795
	c2.742-2.375,5.582-4.593,9.511-4.337c2.891,0.189,5.37,2.774,5.755,5.959C255.604,49.069,255.533,49.776,255.533,50.475"/>
<path fill-rule="evenodd" clip-rule="evenodd" d="M223.623,70.802c0.037-1.1,0.077-2.032,0.606-2.979
	c2.977-5.33,6.398-10.346,10.299-15.037c0.396-0.475,0.717-0.99,1.422-0.43c0.751,0.595,0.177,1.078-0.157,1.491
	c-3.325,4.121-6.36,8.441-9.024,13.018c-0.802,1.378-1.567,2.778-2.334,4.176c-0.145,0.265-0.258,0.62-0.593,0.564
	C223.166,71.49,223.753,70.987,223.623,70.802"/>
<path fill-rule="evenodd" clip-rule="evenodd" d="M244.033,77.9c-0.031,0.104-0.039,0.208-0.088,0.284
	c-1.612,2.494-3.22,4.991-4.854,7.47c-0.196,0.298-0.508,0.615-0.926,0.187c-0.283-0.289-0.592-0.591-0.463-1.015
	c0.112-0.372,0.335-0.716,0.544-1.05c1.048-1.682,2.086-3.369,3.171-5.025c0.423-0.644,0.798-1.433,1.773-1.389
	C243.562,77.379,244.023,77.315,244.033,77.9"/>
<path fill-rule="evenodd" clip-rule="evenodd" d="M237.693,47.854c1.092-0.047,2.186,0.867,2.243,1.876
	c0.056,0.976-1.003,2.087-2.056,2.159c-0.822,0.056-1.917-0.926-2.031-1.82C235.716,49.015,236.644,47.9,237.693,47.854"/>
<path fill-rule="evenodd" clip-rule="evenodd" d="M254.037,79.904c1.031-0.033,2.144,1.029,2.12,2.024
	c-0.023,0.974-0.866,1.908-1.785,1.978c-1.198,0.092-2.362-0.979-2.301-2.117C252.118,80.901,253.127,79.933,254.037,79.904"/>
<path fill-rule="evenodd" clip-rule="evenodd" d="M236.615,57.972c0.827,0.491,1.527,1.159,2.007,2.045
	c0.115,0.211-0.008,0.307-0.253,0.409c-1.077,0.448-2.624-0.531-2.58-1.675C235.807,58.303,236.132,58.068,236.615,57.972"/>
<path fill-rule="evenodd" clip-rule="evenodd" d="M246.309,70.597c-1.196-0.055-2.396-0.011-3.595-0.011c0,0.003,0,0.004,0,0.007
	c-1.099,0-2.201-0.053-3.295,0.014c-1.221,0.074-1.827-0.26-1.776-1.647c0.071-1.923,0.021-1.992,1.98-2.018
	c2.196-0.029,4.395,0.035,6.591-0.014c1.3-0.029,1.763,0.538,1.753,1.795C247.957,69.902,247.691,70.66,246.309,70.597
	 M252.164,73.27c-0.365-0.554-0.344-1.141-0.007-1.691c0.625-1.018,0.404-2.138,0.378-3.214c-0.077-3.069-1.49-4.749-4.485-4.867
	c-4.482-0.176-8.973-0.08-13.46-0.122c-0.872-0.008-1.254,0.329-1.243,1.219c0.027,2.194,0.009,4.388,0.008,6.582
	c-0.001,2.194-0.01,4.388,0.006,6.582c0.004,0.566-0.132,1.306,0.728,1.369c1.081,0.079,2.287,0.386,3.22-0.151
	c0.874-0.503,0.298-1.649,0.409-2.504c0.051-0.392,0.024-0.797,0.011-1.195c-0.025-0.73,0.318-1.122,1.048-1.12
	c2.592,0.006,5.185,0.019,7.777,0.041c0.979,0.008,1.408,0.69,1.6,1.5c0.135,0.57,0.161,1.189,0.11,1.776
	c-0.109,1.268,0.358,1.736,1.68,1.742c2.739,0.013,2.751,0.086,2.719-2.75C252.652,75.382,252.819,74.262,252.164,73.27z"/>
<path fill-rule="evenodd" clip-rule="evenodd" d="M270.729,74.322c-0.005,0.867-0.505,1.206-1.335,1.202
	c-2.978-0.013-5.957-0.006-8.936-0.016c-0.85-0.003-1.248-0.458-1.243-1.302c0.011-1.986,0.007-3.972,0.02-5.957
	c0.005-0.874,0.501-1.21,1.334-1.201c1.489,0.016,2.978,0.004,4.468,0.004c0-0.001,0-0.003,0-0.004c1.39,0,2.78,0.014,4.17-0.005
	c0.921-0.013,1.542,0.243,1.531,1.32C270.719,70.351,270.741,72.337,270.729,74.322 M274.902,66.836
	c-0.509-2.214-1.998-3.362-4.314-3.41c-3.695-0.075-7.395-0.094-11.088,0.014c-2.704,0.079-4.416,1.865-4.522,4.575
	c-0.086,2.195-0.075,4.397,0.003,6.592c0.097,2.732,1.809,4.434,4.519,4.531c1.795,0.065,3.596,0.013,5.394,0.013
	c0,0.002,0,0.004,0,0.005c1.898,0,3.798,0.058,5.694-0.015c2.309-0.088,3.891-1.231,4.325-3.403
	C275.502,72.794,275.58,69.78,274.902,66.836z"/>
<path d="M389.142,381.544h27.16v-10.143h3.609v24.366h-3.609v-10.141h-27.16V381.544z M389.142,362.47h30.77v4.084h-30.77V362.47z
	 M389.142,330.706h30.77v4.184l-24.151,16.144h24.151v3.909h-30.77v-4.182l24.151-16.142h-24.151V330.706z M419.911,319.87v4.083
	h-17.77c-3.094,0-5.551-0.35-7.37-1.045c-1.812-0.702-3.294-1.963-4.433-3.781c-1.139-1.826-1.713-4.212-1.713-7.177
	c0-2.873,0.494-5.229,1.49-7.055c0.995-1.834,2.428-3.136,4.311-3.919c1.884-0.78,4.455-1.173,7.714-1.173h17.77v4.081h-17.762
	c-2.671,0-4.648,0.252-5.91,0.744c-1.268,0.495-2.249,1.34-2.93,2.55c-0.686,1.205-1.03,2.681-1.03,4.42
	c0,2.98,0.68,5.106,2.033,6.375c1.362,1.268,3.969,1.897,7.837,1.897H419.911z M389.142,256.915h30.77v4.083h-12.678v15.899h12.678
	v4.083h-30.77v-4.083h14.482v-15.899h-14.482V256.915z M399.935,247.625l-1.031,4.082c-3.345-0.853-5.888-2.386-7.643-4.598
	c-1.755-2.214-2.635-4.922-2.635-8.123c0-3.308,0.673-6.002,2.028-8.08c1.345-2.077,3.3-3.652,5.858-4.734
	c2.564-1.08,5.306-1.626,8.244-1.626c3.201,0,5.994,0.609,8.38,1.834c2.384,1.225,4.198,2.964,5.435,5.221
	c1.239,2.257,1.854,4.742,1.854,7.449c0,3.08-0.779,5.664-2.348,7.757c-1.568,2.097-3.767,3.559-6.604,4.382l-0.945-3.996
	c2.235-0.708,3.868-1.747,4.884-3.102c1.025-1.353,1.534-3.058,1.534-5.112c0-2.357-0.568-4.333-1.698-5.917
	c-1.132-1.583-2.657-2.699-4.562-3.338c-1.913-0.645-3.882-0.967-5.91-0.967c-2.614,0-4.899,0.38-6.847,1.138
	c-1.955,0.76-3.409,1.941-4.376,3.546c-0.967,1.602-1.447,3.337-1.447,5.205c0,2.279,0.661,4.198,1.97,5.773
	C395.394,245.998,397.343,247.066,399.935,247.625z M389.142,207.281h27.16V197.14h3.609v24.364h-3.609v-10.141h-27.16V207.281z
	 M389.142,188.207h30.77v4.084h-30.77V188.207z M389.142,152.269l30.77-8.1v4.226l-20.178,4.611
	c-2.111,0.501-4.21,0.946-6.287,1.325c3.28,0.81,5.171,1.284,5.672,1.419l20.792,5.816v4.906l-15.578,4.412
	c-3.868,1.082-7.5,1.884-10.887,2.4c1.941,0.409,4.168,0.932,6.683,1.568l19.782,4.806v4.09l-30.77-8.424v-3.961l23.442-6.453
	c1.963-0.544,3.166-0.874,3.609-0.995c-1.404-0.352-2.607-0.667-3.601-0.938l-23.45-6.453V152.269z M399.025,116.966l0.344,3.824
	c-1.547,0.18-2.815,0.601-3.81,1.268c-0.989,0.667-1.791,1.699-2.406,3.095c-0.609,1.396-0.916,2.971-0.916,4.72
	c0,1.553,0.227,2.92,0.694,4.111c0.465,1.189,1.102,2.07,1.911,2.649c0.81,0.58,1.691,0.874,2.637,0.874
	c0.96,0,1.798-0.278,2.52-0.837c0.717-0.558,1.318-1.482,1.813-2.772c0.316-0.823,0.817-2.649,1.496-5.48
	c0.681-2.827,1.318-4.805,1.921-5.935c0.772-1.47,1.733-2.559,2.871-3.274c1.138-0.724,2.421-1.082,3.83-1.082
	c1.563,0,3.016,0.443,4.363,1.325c1.353,0.88,2.378,2.163,3.08,3.86c0.702,1.69,1.052,3.575,1.052,5.643
	c0,2.277-0.364,4.291-1.101,6.03c-0.732,1.742-1.813,3.08-3.245,4.018c-1.426,0.938-3.045,1.44-4.849,1.512l-0.301-3.91
	c1.94-0.208,3.409-0.916,4.398-2.127c0.995-1.209,1.488-3.001,1.488-5.364c0-2.463-0.449-4.263-1.353-5.387
	c-0.902-1.123-1.992-1.691-3.266-1.691c-1.102,0-2.012,0.402-2.729,1.197c-0.708,0.788-1.446,2.829-2.19,6.139
	c-0.752,3.31-1.405,5.579-1.963,6.81c-0.823,1.783-1.862,3.108-3.13,3.961c-1.26,0.852-2.715,1.276-4.362,1.276
	c-1.64,0-3.173-0.467-4.619-1.405c-1.447-0.938-2.572-2.277-3.374-4.032c-0.803-1.755-1.203-3.724-1.203-5.923
	c0-2.78,0.408-5.108,1.217-6.984c0.81-1.883,2.028-3.351,3.66-4.418C395.129,117.581,396.971,117.023,399.025,116.966z"/>
<path fill-rule="evenodd" clip-rule="evenodd" d="M168.072,145.52c9.824,0,17.788,7.964,17.788,17.788
	c0,9.825-7.964,17.789-17.788,17.789c-9.824,0-17.789-7.964-17.789-17.789C150.284,153.484,158.248,145.52,168.072,145.52"/>
</svg>
