<?xml version="1.0" encoding="utf-8"?>
<!-- Generator: Adobe Illustrator 17.0.0, SVG Export Plug-In . SVG Version: 6.00 Build 0)  -->
<!DOCTYPE svg PUBLIC "-//W3C//DTD SVG 1.1//EN" "http://www.w3.org/Graphics/SVG/1.1/DTD/svg11.dtd">
<svg version="1.1" id="Layer_1" xmlns="http://www.w3.org/2000/svg" xmlns:xlink="http://www.w3.org/1999/xlink" x="0px" y="0px"
	 width="308.826px" height="883.925px" viewBox="0 0 308.826 883.925" enable-background="new 0 0 308.826 883.925"
	 xml:space="preserve" xmlns:pulse="-" xmlns:onclick="-" >
<g>
	<path d="M285.583,883.204v-2.114c0-10.362,0.148-22.65,0.319-36.879c0.813-67.247,2.038-168.87-11.493-219.37
		c-8.632-32.219-10.104-94.398-9.682-184.283c0.402-85.724-0.2-184.796-0.731-272.205c-0.333-54.672-0.647-106.312-0.63-144.138
		l0.006-22.798h1.417c11.337,0,22.026,4.446,30.099,12.52c8.074,8.074,12.521,18.763,12.521,30.099v808.823
		c0,8.488-3.329,16.494-9.376,22.542c-3.029,3.029-6.561,5.384-10.494,6.999L285.583,883.204z M266.206,4.277L266.2,24.216
		c-0.017,37.816,0.298,89.452,0.63,144.119c0.532,87.417,1.135,186.497,0.731,272.236c-0.421,89.649,1.035,151.623,9.586,183.535
		c13.633,50.878,12.403,152.736,11.59,220.139c-0.16,13.224-0.299,24.771-0.317,34.645c2.806-1.401,5.358-3.243,7.608-5.492
		c5.511-5.513,8.546-12.807,8.546-20.538V44.036c0-10.578-4.152-20.556-11.69-28.094C285.684,8.741,276.258,4.63,266.206,4.277z"/>
</g>
<g>
	<path fill-rule="evenodd" clip-rule="evenodd" d="M99.652,226.859c6.36,0,11.517,5.157,11.517,11.517
		c0,6.36-5.157,11.511-11.517,11.511c-6.36,0-11.511-5.157-11.511-11.511C88.135,232.01,93.292,226.859,99.652,226.859"/>
</g>
<g>
	<path fill-rule="evenodd" clip-rule="evenodd" d="M99.651,223.227c4.183,0,7.977,1.702,10.71,4.437
		c2.74,2.74,4.431,6.529,4.431,10.706c0,4.183-1.691,7.97-4.431,10.71l-0.007-0.007c-2.74,2.74-6.534,4.442-10.706,4.442
		c-4.183,0-7.97-1.691-10.71-4.43c-2.74-2.74-4.43-6.529-4.43-10.717c0-4.183,1.691-7.97,4.43-10.71
		C91.679,224.917,95.475,223.227,99.651,223.227 M107.585,230.441c-2.025-2.03-4.836-3.292-7.929-3.292
		c-3.091,0-5.904,1.255-7.929,3.285c-2.03,2.03-3.285,4.836-3.285,7.929c0,3.097,1.256,5.904,3.285,7.933
		c2.025,2.03,4.832,3.285,7.929,3.285c3.097,0,5.904-1.255,7.929-3.278v-0.007c2.03-2.03,3.285-4.831,3.285-7.929
		C110.87,235.277,109.61,232.47,107.585,230.441"/>
</g>
<g>
	<path fill-rule="evenodd" clip-rule="evenodd" d="M93.644,291.329c-40.642,0-42.292,49.986,0,49.986l42.517-0.21v-49.772H93.644
		V291.329z"/>
</g>
<g>
	<path fill-rule="evenodd" clip-rule="evenodd" d="M93.644,378.306c-40.642,0-42.292,49.986,0,49.986l42.517-0.21V378.31H93.644
		V378.306z"/>
</g>
<g>
	<path fill-rule="evenodd" clip-rule="evenodd" d="M93.644,466.005c-40.642,0-42.292,49.986,0,49.986l42.517-0.21v-49.776H93.644z"
		/>
</g>
<g>
	<path fill-rule="evenodd" clip-rule="evenodd" d="M93.644,550.766c-40.642,0-42.292,49.986,0,49.986l42.517-0.21V550.77H93.644
		V550.766z"/>
</g>
<g>
	<path fill-rule="evenodd" clip-rule="evenodd" d="M163.387,284.053h-3.954l-1.544-4.989h-7.268l-1.497,4.989h-3.877l7.025-22.046
		h3.889L163.387,284.053z M156.7,275.34l-2.503-8.191l-2.453,8.191H156.7z"/>
</g>
<g>
	<path fill-rule="evenodd" clip-rule="evenodd" d="M147.095,348.431h7.251c1.975,0,3.366,0.177,4.174,0.538
		c0.802,0.364,1.484,0.996,2.035,1.914c0.555,0.913,0.831,1.942,0.831,3.098c0,1.062-0.237,2.025-0.705,2.877
		c-0.474,0.863-1.083,1.49-1.831,1.902c1.062,0.385,1.892,1.033,2.497,1.958c0.599,0.925,0.902,2.042,0.902,3.366
		c0,1.611-0.385,2.964-1.16,4.064c-0.769,1.11-1.684,1.788-2.734,2.052c-0.738,0.177-2.437,0.27-5.104,0.27h-6.158V348.431z
		 M150.727,352.096v5.116l2.424-0.002c1.453,0,2.349-0.027,2.69-0.077c0.628-0.094,1.116-0.364,1.467-0.786
		c0.352-0.428,0.528-1.006,0.528-1.744c0-0.661-0.144-1.189-0.428-1.59c-0.287-0.412-0.632-0.665-1.045-0.765
		c-0.408-0.1-1.584-0.147-3.516-0.147h-2.12V352.096z M150.727,360.873v5.879l3.399,0.002c1.484,0,2.443-0.077,2.871-0.231
		c0.424-0.16,0.775-0.461,1.062-0.919c0.287-0.451,0.428-1.033,0.428-1.728c0-0.725-0.154-1.314-0.457-1.782
		c-0.308-0.461-0.715-0.786-1.227-0.956c-0.505-0.177-1.545-0.258-3.114-0.258l-2.962-0.002V360.873z"/>
</g>
<g>
	<path fill-rule="evenodd" clip-rule="evenodd" d="M158.648,448.137l3.542,1.36c-0.551,2.48-1.468,4.285-2.75,5.428
		c-1.287,1.143-2.854,1.717-4.729,1.717c-2.353,0-4.264-0.909-5.725-2.723c-1.684-2.096-2.524-4.923-2.524-8.476
		c0-3.757,0.842-6.7,2.54-8.823c1.48-1.842,3.459-2.767,5.945-2.767c2.029,0,3.723,0.692,5.083,2.079
		c0.969,0.986,1.688,2.447,2.135,4.389l-3.603,1.046c-0.231-1.193-0.692-2.106-1.38-2.74c-0.688-0.638-1.501-0.956-2.436-0.956
		c-1.331,0-2.42,0.582-3.262,1.738c-0.846,1.16-1.27,3.075-1.27,5.742c0,2.773,0.412,4.742,1.233,5.919
		c0.819,1.166,1.881,1.755,3.201,1.755c0.956,0,1.788-0.374,2.493-1.122C157.827,450.954,158.334,449.765,158.648,448.137"/>
</g>
<g>
	<path fill-rule="evenodd" clip-rule="evenodd" d="M147.068,521.161h6.657c1.684,0,2.954,0.193,3.817,0.561
		c0.859,0.374,1.638,1.012,2.366,1.902c0.725,0.885,1.293,2.046,1.701,3.472c0.412,1.424,0.615,3.201,0.615,5.313
		c0,1.902-0.214,3.565-0.649,4.967c-0.428,1.414-0.973,2.524-1.638,3.345c-0.665,0.825-1.464,1.447-2.393,1.858
		c-0.94,0.418-2.145,0.628-3.619,0.628h-6.85v-22.046H147.068z M150.698,524.887v14.592h2.74c1.177,0,2.029-0.104,2.557-0.331
		c0.528-0.22,0.956-0.555,1.293-1.002c0.341-0.445,0.611-1.15,0.836-2.112c0.221-0.956,0.335-2.229,0.335-3.8
		c0-1.634-0.117-2.921-0.341-3.867c-0.225-0.94-0.582-1.684-1.062-2.222c-0.478-0.538-1.056-0.896-1.738-1.066
		c-0.505-0.127-1.497-0.193-2.964-0.193L150.698,524.887z"/>
</g>
<g>
	<path fill-rule="evenodd" clip-rule="evenodd" d="M214.987,291.329c40.641,0,42.292,49.986,0,49.986l-42.513-0.21v-49.772h42.513
		V291.329z"/>
</g>
<g>
	<path fill-rule="evenodd" clip-rule="evenodd" d="M214.987,378.306c40.641,0,42.292,49.986,0,49.986l-42.513-0.21V378.31h42.513
		V378.306z"/>
</g>
<g>
	<path fill-rule="evenodd" clip-rule="evenodd" d="M214.987,466.005c40.641,0,42.292,49.986,0,49.986l-42.513-0.21v-49.776H214.987z
		"/>
</g>
<g>
	<path fill-rule="evenodd" clip-rule="evenodd" d="M214.987,550.766c40.641,0,42.292,49.986,0,49.986l-42.513-0.21V550.77h42.513
		V550.766z"/>
</g>
<g>
	<path d="M117.337,631.93v-18.607h3.647l7.658,12.47v-12.47h3.483v18.607h-3.764l-7.541-12.232v12.232H117.337z M100.216,622.613
		c0,2.109,0.489,3.708,1.464,4.799c0.975,1.087,2.214,1.633,3.712,1.633c1.503,0,2.734-0.541,3.7-1.62
		c0.961-1.082,1.442-2.703,1.442-4.864c0-2.135-0.467-3.729-1.407-4.777c-0.936-1.052-2.179-1.577-3.734-1.577
		c-1.55,0-2.802,0.532-3.751,1.594C100.693,618.866,100.216,620.469,100.216,622.613z M96.343,622.739
		c0-1.897,0.286-3.491,0.854-4.782c0.421-0.948,1-1.802,1.733-2.555c0.732-0.754,1.533-1.313,2.404-1.681
		c1.161-0.49,2.5-0.736,4.015-0.736c2.746,0,4.938,0.853,6.587,2.555c1.646,1.706,2.469,4.075,2.469,7.112
		c0,3.011-0.819,5.367-2.452,7.065c-1.632,1.703-3.82,2.552-6.553,2.552c-2.767,0-4.972-0.845-6.605-2.538
		C97.163,628.04,96.343,625.71,96.343,622.739z"/>
</g>
<g>
	<path d="M209.422,631.93v-18.607h12.787v3.145h-9.018v4.418h7.796v3.144h-7.796v7.9H209.422z M193.548,631.93v-18.607h12.786v3.145
		h-9.018v4.418h7.796v3.144h-7.796v7.9H193.548z M176.427,622.613c0,2.109,0.489,3.708,1.464,4.799
		c0.975,1.087,2.213,1.633,3.712,1.633c1.503,0,2.734-0.541,3.699-1.62c0.962-1.082,1.442-2.703,1.442-4.864
		c0-2.135-0.467-3.729-1.407-4.777c-0.936-1.052-2.179-1.577-3.734-1.577c-1.55,0-2.802,0.532-3.751,1.594
		C176.903,618.866,176.427,620.469,176.427,622.613z M172.554,622.739c0-1.897,0.286-3.491,0.853-4.782
		c0.421-0.948,1.001-1.802,1.733-2.555c0.732-0.754,1.533-1.313,2.404-1.681c1.161-0.49,2.499-0.736,4.015-0.736
		c2.746,0,4.938,0.853,6.588,2.555c1.646,1.706,2.469,4.075,2.469,7.112c0,3.011-0.819,5.367-2.452,7.065
		c-1.632,1.703-3.82,2.552-6.553,2.552c-2.768,0-4.972-0.845-6.606-2.538C173.374,628.04,172.554,625.71,172.554,622.739z"/>
</g>
<g>
	<path d="M192.218,162.356c-3.331,0.057-6.665,0.035-9.997,0.003c-2.012-0.019-2.016-0.059-1.506-1.995
		c0.112-0.428,0.297-0.837,0.398-1.268c0.865-3.703,1.262-7.394,0.188-11.156c-1.297-4.539-5.938-9.06-11.543-9.096h-0.064
		c-0.167,0-0.335,0.003-0.504,0.011c-4.468,0.213-8.093,2.089-11.397,4.809c-1.71,1.407-3.254,3.017-4.868,4.542
		c-1.789,1.69-1.788,1.695-3.75,0.085c-0.257-0.211-0.466-0.481-0.728-0.684c-3.526-2.734-7.286-5.035-11.63-6.247
		c-7.762-2.167-15.269,3.416-15.462,11.448c-0.052,2.136,0.268,4.171,0.913,6.202c1.06,3.342,1.015,3.359-2.319,3.362
		c-2.888,0.003-5.78-0.093-8.663,0.023c-3.823,0.153-5.853,2.313-5.921,6.151c-0.046,2.554-0.009,5.11-0.01,7.664
		c-0.001,2.333,0.197,4.687-0.045,6.994c-0.451,4.302,2.989,7.221,6.906,6.952c4.644-0.32,9.325-0.06,13.991-0.078
		c1.228-0.005,1.841,0.148,1.337,1.696c-1.043,3.204-1,6.564-0.84,9.889c0.369,7.698,7.515,13.039,15.078,11.472
		c2.553-0.529,4.853-1.461,6.975-2.93c1.736-1.201,3.478-2.4,4.905-3.97c0.874-0.962,1.592-0.825,2.547-0.073
		c1.564,1.234,3.16,2.466,4.884,3.451c4.064,2.324,8.292,4.226,13.159,3.925c6.879-0.425,10.996-6.412,11.169-11.194
		c0.134-3.713-0.321-7.304-1.762-10.728c-0.539-1.281-0.075-1.551,1.092-1.541c2.888,0.023,5.785,0.147,8.663-0.029
		c5.974-0.365,10.007-5.12,9.886-10.064c-0.052-2.109-0.151-4.233,0.023-6.33c0.024-0.291,0.037-0.58,0.038-0.866v-0.03
		C203.372,166.879,198.584,162.246,192.218,162.356 M201.424,180.105c-0.111,4.654-3.279,7.961-7.914,8.112
		c-3.772,0.123-7.552,0.013-11.327,0.054c-1.784,0.019-1.899,0.216-1.157,1.933c1.418,3.275,2.285,6.622,2.515,10.242
		c0.422,6.638-4.821,13.011-14.041,10.85c-4.178-0.979-7.778-3.144-11.087-5.821c-0.776-0.627-1.591-1.22-2.289-1.927
		c-0.9-0.911-1.641-0.895-2.511,0.041c-1.512,1.628-3.154,3.129-4.974,4.406c-2.374,1.667-4.914,3.076-7.812,3.513
		c-6.211,0.937-11.613-3.462-12.189-9.843c-0.332-3.68,0.1-7.289,1.092-10.849c0.695-2.49,0.649-2.526-2.044-2.555
		c-2.665-0.029-5.331-0.007-7.997-0.008c-2.776-0.002-5.553,0.043-8.328-0.014c-3.134-0.065-4.13-1.082-4.151-4.253
		c-0.035-5.22-0.042-10.441,0.005-15.66c0.027-2.965,1.047-4.014,3.989-4.066c3.886-0.069,7.775-0.017,11.661-0.023
		c3.134-0.005,3.084,0.009,2.085-2.82c-0.921-2.607-1.757-5.233-1.712-8.07c0.117-7.342,6.343-12.071,13.389-10.082
		c3.906,1.102,7.258,3.24,10.404,5.737c0.435,0.345,0.86,0.701,1.279,1.065c2.956,2.575,2.965,2.586,5.797-0.327
		c2.014-2.072,4.144-4.013,6.437-5.769c2.144-1.643,4.535-2.779,7.234-3.117c6.533-0.818,11.594,3.657,12.162,10.281
		c0.299,3.486-0.343,6.838-1.444,10.122c-0.316,0.943-0.719,1.856-1.001,2.807c-0.15,0.507,0.141,0.877,0.704,0.749
		c4.717-1.074,9.498-0.412,14.246-0.484c5.577-0.086,8.909,3.287,8.979,8.779C201.456,175.441,201.48,177.775,201.424,180.105z"/>
</g>
<g>
	<path d="M120.183,185.055c-2.773,0-5.546-0.037-8.317,0.017c-1.298,0.025-1.744-0.495-1.732-1.773
		c0.047-4.768,0.041-9.537,0.004-14.306c-0.009-1.186,0.534-1.526,1.61-1.522c5.545,0.021,11.091,0.065,16.634-0.021
		c1.707-0.027,1.643,0.913,1.694,2.1c0.06,1.414-0.426,1.967-1.897,1.924c-3.102-0.09-6.209-0.03-9.315-0.029
		c-0.776,0-1.553,0.022-2.328,0.005c-0.793-0.017-1.25,0.272-1.239,1.138c0.01,0.835,0.066,1.565,1.202,1.53
		c1.108-0.035,2.218-0.003,3.327-0.003c2.551,0.002,5.103,0.042,7.652-0.012c1.279-0.028,2.098,0.151,2.038,1.753
		c-0.075,1.991-0.095,2.187-1.926,2.217c-2.883,0.047-5.767,0.012-8.651,0.013c-0.776,0.001-1.554,0.04-2.328,0
		c-1.03-0.053-1.309,0.474-1.329,1.407c-0.023,1.076,0.275,1.617,1.489,1.599c3.659-0.053,7.319-0.032,10.979-0.007
		c2.286,0.015,2.367,0.193,2.328,2.453c-0.02,1.161-0.451,1.542-1.576,1.522c-2.771-0.051-5.545-0.017-8.317-0.017V185.055z"/>
</g>
<g>
	<path d="M132.722,176.165c0-2.435,0.021-4.871-0.01-7.307c-0.012-0.98,0.385-1.417,1.368-1.377c0.774,0.031,1.55,0.03,2.324-0.003
		c1.169-0.048,1.495,0.543,1.483,1.631c-0.041,3.432,0.036,6.864-0.031,10.294c-0.026,1.336,0.509,1.722,1.759,1.691
		c2.545-0.063,5.093-0.064,7.638-0.01c1.811,0.039,2.838,1.827,2.032,3.428c-0.221,0.439-0.648,0.533-1.116,0.533
		c-4.649-0.001-9.299-0.012-13.948,0.022c-1.152,0.008-1.541-0.489-1.52-1.597c0.047-2.435,0.015-4.871,0.015-7.306H132.722z"/>
</g>
<g>
	<path d="M180.122,200.402c-0.04,6.306-4.728,9.473-10.588,7.544c-1.904-0.627-3.673-1.59-5.314-2.72
		c-6.451-4.439-11.684-10.182-16.861-15.976c-0.173-0.193-0.16-0.552-0.234-0.833c0.323-0.058,0.643-0.139,0.968-0.17
		c1.206-0.113,1.708,0.864,2.381,1.567c2.756,2.888,5.422,5.868,8.285,8.645c2.941,2.854,6.037,5.555,9.753,7.422
		c1.513,0.76,3.067,1.23,4.784,1.161c3.069-0.122,5.131-2.09,5.403-5.177c0.263-2.982-0.8-5.653-1.841-8.346
		c-0.23-0.594-1.208-1.374-0.115-1.927c1.073-0.544,1.255,0.56,1.525,1.217C179.319,195.379,180.302,197.973,180.122,200.402"/>
</g>
<g>
	<path d="M131.889,198.816c-0.073-3.036,0.798-5.903,1.557-8.787c0.083-0.318,0.281-0.603,0.393-0.915
		c0.275-0.763,0.848-1.094,1.549-0.763c0.681,0.321,0.321,0.906,0.097,1.412c-0.948,2.138-1.394,4.425-1.836,6.695
		c-0.403,2.066-0.488,4.157,0.174,6.233c1.136,3.556,4.057,5.07,7.525,3.754c2.522-0.957,4.648-2.544,6.568-4.414
		c0.874-0.85,1.739-1.71,2.583-2.589c0.403-0.419,0.717-0.318,1.095,0.021c0.391,0.351,0.524,0.776,0.168,1.141
		c-3.259,3.352-6.601,6.666-11.432,7.553c-4.13,0.758-7.682-2.205-8.297-6.688C131.915,200.595,131.934,199.701,131.889,198.816"/>
</g>
<g>
	<path d="M128.489,153.862c-0.004,3.305,1.237,6.258,2.6,9.176c0.177,0.377,0.463,0.846-0.085,1.134
		c-0.554,0.291-1.244,0.136-1.439-0.379c-1.6-4.215-3.591-8.379-2.247-13.101c0.834-2.928,3.547-4.639,6.623-4.176
		c3.481,0.523,6.503,2.119,9.34,4.091c1.725,1.2,3.382,2.502,5.038,3.798c0.463,0.363,0.663,0.908,0.19,1.437
		c-0.518,0.581-0.975,0.211-1.403-0.157c-2.353-2.019-4.77-3.948-7.468-5.502c-1.634-0.941-3.291-1.756-5.178-2.14
		c-3.689-0.753-5.779,0.758-5.966,4.488C128.469,152.974,128.489,153.419,128.489,153.862"/>
</g>
<g>
	<path d="M176.557,153.147c-0.104,4.039-1.471,7.777-2.843,11.509c-0.181,0.493-0.496,1.081-1.203,0.822
		c-0.89-0.328-0.622-1.026-0.406-1.657c0.715-2.09,1.633-4.133,2.115-6.275c0.526-2.333,1.262-4.658,0.663-7.175
		c-0.954-4.015-3.729-5.75-7.622-4.491c-1.926,0.623-3.575,1.734-5.106,3.032c-0.505,0.428-0.979,0.902-1.525,1.27
		c-0.417,0.281-0.911,0.109-1.154-0.281c-0.127-0.205-0.072-0.733,0.103-0.884c3.047-2.638,6.202-5.104,10.569-4.819
		c3.212,0.21,5.967,3.082,6.396,6.622C176.637,151.585,176.557,152.371,176.557,153.147"/>
</g>
<g>
	<path d="M141.1,175.733c0.041-1.222,0.086-2.258,0.673-3.311c3.308-5.922,7.109-11.495,11.445-16.709
		c0.439-0.528,0.795-1.1,1.58-0.478c0.834,0.661,0.196,1.198-0.175,1.657c-3.694,4.58-7.067,9.379-10.027,14.466
		c-0.892,1.531-1.742,3.087-2.594,4.641c-0.161,0.293-0.287,0.689-0.659,0.626C140.592,176.499,141.245,175.939,141.1,175.733"/>
</g>
<g>
	<path d="M163.78,183.621c-0.035,0.116-0.043,0.23-0.098,0.316c-1.792,2.771-3.578,5.546-5.395,8.3
		c-0.218,0.331-0.564,0.683-1.028,0.208c-0.314-0.321-0.657-0.656-0.516-1.128c0.125-0.412,0.373-0.795,0.604-1.167
		c1.164-1.868,2.318-3.744,3.525-5.584c0.468-0.716,0.886-1.591,1.97-1.542C163.256,183.042,163.768,182.971,163.78,183.621"/>
</g>
<g>
	<path d="M156.734,150.235c1.213-0.053,2.429,0.963,2.493,2.084c0.061,1.084-1.114,2.319-2.285,2.399
		c-0.914,0.062-2.131-1.029-2.257-2.023C154.538,151.525,155.569,150.286,156.734,150.235"/>
</g>
<g>
	<path d="M174.895,185.847c1.146-0.037,2.382,1.143,2.356,2.248c-0.026,1.083-0.962,2.12-1.984,2.199
		c-1.33,0.102-2.624-1.088-2.557-2.352C172.763,186.955,173.884,185.88,174.895,185.847"/>
</g>
<g>
	<path d="M155.537,161.477c0.919,0.545,1.697,1.288,2.23,2.272c0.127,0.235-0.01,0.341-0.282,0.454
		c-1.197,0.497-2.916-0.59-2.867-1.862C154.638,161.845,155,161.584,155.537,161.477"/>
</g>
<g>
	<path d="M172.815,178.476c-0.406-0.616-0.383-1.268-0.007-1.88c0.695-1.13,0.45-2.376,0.419-3.571
		c-0.086-3.41-1.654-5.277-4.983-5.407c-4.979-0.195-9.97-0.089-14.956-0.136c-0.969-0.009-1.394,0.365-1.381,1.355
		c0.031,2.438,0.01,4.876,0.009,7.314c-0.001,2.438-0.012,4.876,0.006,7.314c0.005,0.629-0.147,1.451,0.808,1.521
		c1.202,0.088,2.541,0.429,3.578-0.168c0.97-0.559,0.332-1.832,0.455-2.782c0.056-0.436,0.027-0.885,0.012-1.328
		c-0.027-0.812,0.353-1.246,1.164-1.244c2.881,0.007,5.761,0.021,8.642,0.045c1.088,0.009,1.564,0.766,1.778,1.667
		c0.151,0.633,0.179,1.322,0.122,1.974c-0.122,1.408,0.397,1.929,1.867,1.936c3.044,0.014,3.058,0.096,3.021-3.057
		C173.356,180.823,173.541,179.578,172.815,178.476 M166.308,175.506c-1.329-0.061-2.663-0.013-3.994-0.013v0.007
		c-1.221,0-2.445-0.059-3.661,0.016c-1.357,0.083-2.031-0.289-1.974-1.831c0.079-2.137,0.023-2.214,2.2-2.242
		c2.441-0.033,4.884,0.04,7.324-0.015c1.445-0.033,1.958,0.597,1.948,1.995C168.14,174.733,167.844,175.576,166.308,175.506z"/>
</g>
<g>
	<path d="M198.081,171.326c-0.566-2.46-2.221-3.736-4.794-3.788c-4.106-0.083-8.217-0.104-12.32,0.015
		c-3.005,0.088-4.907,2.072-5.025,5.083c-0.095,2.438-0.084,4.886,0.003,7.325c0.107,3.036,2.01,4.926,5.021,5.036
		c1.995,0.072,3.995,0.013,5.993,0.013v0.006c2.109,0,4.221,0.064,6.327-0.017c2.566-0.098,4.323-1.368,4.806-3.781
		C198.746,177.947,198.833,174.598,198.081,171.326 M193.443,179.645c-0.006,0.963-0.561,1.339-1.483,1.335
		c-3.309-0.014-6.619-0.007-9.929-0.017c-0.945-0.003-1.386-0.508-1.38-1.446c0.012-2.206,0.007-4.413,0.021-6.62
		c0.007-0.971,0.558-1.344,1.483-1.334c1.654,0.017,3.309,0.005,4.965,0.005v-0.005c1.544,0,3.089,0.016,4.633-0.005
		c1.023-0.014,1.713,0.271,1.701,1.467C193.432,175.232,193.456,177.439,193.443,179.645z"/>
</g>
<path d="M295.891,12.935C287.55,4.594,276.505,0,264.789,0H44.036C32.321,0,21.275,4.594,12.935,12.935
	C4.594,21.276,0,32.322,0,44.036v808.823c0,8.867,3.477,17.229,9.792,23.545c3.162,3.16,6.848,5.619,10.957,7.308l0.518,0.213
	H287.56l0.518-0.213c4.109-1.688,7.796-4.147,10.958-7.309c6.313-6.315,9.791-14.678,9.791-23.544V44.036
	C308.826,32.322,304.232,21.277,295.891,12.935z M266.2,24.216l0.006-18.512c9.672,0.353,18.744,4.307,25.675,11.24
	c7.271,7.271,11.275,16.893,11.275,27.092v639.9h-17.132c-1.824-23.17-4.629-43.976-8.877-59.83
	c-8.551-31.912-10.007-93.886-9.586-183.534c0.403-85.74-0.199-184.82-0.731-272.237C266.498,113.668,266.184,62.033,266.2,24.216z
	 M45.033,440.558c-0.403-85.719,0.2-184.786,0.731-272.19c0.333-54.678,0.647-106.324,0.63-144.152L46.39,5.669h216.981
	l-0.005,18.546c-0.018,37.825,0.297,89.465,0.63,144.137c0.531,87.41,1.134,186.482,0.731,272.206
	c-0.423,89.884,1.05,152.063,9.682,184.282c4.191,15.641,6.965,36.188,8.776,59.096H237.09c-5.409-0.06-11.005-2.133-16.557-6.104
	c-17.35-14.276-40.021-22.245-63.838-22.438c-0.292-0.002-0.581-0.003-0.872-0.003c-23.91,0-46.685,7.952-64.14,22.383
	c-5.627,4.029-11.224,6.103-16.617,6.162h-48.49c1.81-22.908,4.585-43.455,8.776-59.096
	C43.984,592.621,45.456,530.441,45.033,440.558z M16.944,16.944c6.932-6.933,16.004-10.886,25.676-11.24l0.005,18.512
	c0.017,37.826-0.297,89.476-0.63,144.159c-0.531,87.404-1.134,186.47-0.731,272.197c0.422,89.648-1.034,151.621-9.585,183.534
	c-4.248,15.854-7.053,36.66-8.877,59.83H5.669v-639.9C5.669,33.836,9.673,24.214,16.944,16.944z M20.088,844.243
	c0.151,12.512,0.284,23.519,0.313,33.031c-2.417-1.288-4.635-2.913-6.601-4.879c-5.244-5.245-8.131-12.183-8.131-19.536V686.77
	h16.916C18.8,737.421,19.539,798.697,20.088,844.243z M285.902,844.21c-0.156,12.961-0.291,24.293-0.314,34.045H24.174
	c-0.023-9.753-0.159-21.085-0.316-34.047c-0.55-45.564-1.289-106.906,2.5-157.438h48.723c6.001-0.065,12.143-2.316,18.33-6.751
	c35.06-28.975,90.106-28.976,125.396,0.06c6.109,4.375,12.25,6.626,18.267,6.691h46.328
	C287.192,737.303,286.453,798.646,285.902,844.21z M295.026,872.394c-1.967,1.966-4.185,3.592-6.603,4.88
	c0.03-9.512,0.163-20.519,0.314-33.03c0.55-45.546,1.288-106.822-2.497-157.474h16.916v166.089
	C303.156,860.212,300.269,867.15,295.026,872.394z"/>
<g>
	<path pulse:unit="10000" pulse:state="1" pulse:initial="true" fill-rule="evenodd" clip-rule="evenodd" d="M93.644,291.329c-40.642,0-42.292,49.986,0,49.986l42.517-0.21
		v-49.772H93.644V291.329z"/>
</g>
<g>
	<path pulse:unit="01000" pulse:state="1" fill-rule="evenodd" clip-rule="evenodd" d="M93.644,378.306c-40.642,0-42.292,49.986,0,49.986l42.517-0.21
		V378.31H93.644V378.306z"/>
</g>
<g>
	<path pulse:unit="00100" pulse:state="1" fill-rule="evenodd" clip-rule="evenodd" d="M93.644,466.005c-40.642,0-42.292,49.986,0,49.986l42.517-0.21
		v-49.776H93.644z"/>
</g>
<g>
	<path pulse:unit="00010" pulse:state="1" fill-rule="evenodd" clip-rule="evenodd" d="M93.644,550.766c-40.642,0-42.292,49.986,0,49.986l42.517-0.21
		V550.77H93.644V550.766z"/>
</g>
<g>
	<path pulse:unit="10000" pulse:state="0" fill-rule="evenodd" clip-rule="evenodd" d="M214.987,291.329c40.641,0,42.292,49.986,0,49.986l-42.513-0.21
		v-49.772h42.513V291.329z"/>
</g>
<g>
	<path pulse:unit="01000" pulse:state="0" fill-rule="evenodd" clip-rule="evenodd" d="M214.987,378.306c40.641,0,42.292,49.986,0,49.986l-42.513-0.21
		V378.31h42.513V378.306z"/>
</g>
<g>
	<path pulse:unit="00100" pulse:state="0" fill-rule="evenodd" clip-rule="evenodd" d="M214.987,466.005c40.641,0,42.292,49.986,0,49.986l-42.513-0.21
		v-49.776H214.987z"/>
</g>
<g>
	<path pulse:unit="00010" pulse:state="0" fill-rule="evenodd" clip-rule="evenodd" d="M214.987,550.766c40.641,0,42.292,49.986,0,49.986l-42.513-0.21
		V550.77h42.513V550.766z"/>
</g>
</svg>
