<?xml version="1.0" encoding="utf-8"?>
<!-- Generator: Adobe Illustrator 17.0.0, SVG Export Plug-In . SVG Version: 6.00 Build 0)  -->
<!DOCTYPE svg PUBLIC "-//W3C//DTD SVG 1.1//EN" "http://www.w3.org/Graphics/SVG/1.1/DTD/svg11.dtd">
<svg version="1.1" id="Layer_1" xmlns="http://www.w3.org/2000/svg" xmlns:xlink="http://www.w3.org/1999/xlink" x="0px" y="0px"
	 width="212.211px" height="405px" viewBox="-64.743 -123.56 212.211 405" enable-background="new -64.743 -123.56 212.211 405"
	 xml:space="preserve">
<g>
	<path d="M140.739-116.834c-4.151-4.148-9.879-6.726-16.176-6.726h-166.4c-6.3,0-12.028,2.578-16.179,6.726
		c-4.148,4.151-6.726,9.879-6.726,16.179v351.917c0,8.299,3.394,15.846,8.863,21.315s13.014,8.863,21.315,8.863H117.29
		c8.299,0,15.846-3.394,21.315-8.863s8.863-13.014,8.863-21.315v-351.917C147.468-106.956,144.89-112.684,140.739-116.834z
		 M136.022-95.987v16.574c0,5.143-10.497,9.892-27.458,13.403c-17.19,3.561-40.952,5.764-67.189,5.764
		c-26.263,0-50.017-2.204-67.199-5.759c-16.964-3.514-27.451-8.263-27.451-13.409h-0.003l-0.018-16.572
		c0.167,0.236,0.39,0.469,0.593,0.703c0.126,0.144,0.226,0.29,0.364,0.431c0.413,0.423,0.877,0.844,1.408,1.254
		c2.229,1.721,5.51,3.345,9.684,4.836c8.417,3.009,20.537,5.515,35.057,7.249c14.001,1.673,30.242,2.629,47.552,2.629
		c17.313,0,33.556-0.957,47.555-2.629c14.522-1.734,26.64-4.243,35.057-7.252c4.176-1.493,7.46-3.119,9.689-4.841
		c0.534-0.413,0.998-0.831,1.411-1.257c0.133-0.139,0.233-0.28,0.354-0.418C135.629-95.515,135.855-95.745,136.022-95.987z
		 M100.996,264.729l0.005,14.527H-18.153l0.005-14.527c0.046-102.397,0.072-173.186-18.583-234.2
		c15.925,26.527,44.966,44.322,78.094,44.322c33.32,0,62.502-18.006,78.363-44.789C100.929,91.182,100.95,162.07,100.996,264.729z
		 M41.361,73.764c-34.6,0-64.678-19.652-79.715-48.368c-0.028-0.087-0.054-0.177-0.082-0.264l-0.044,0.015
		c-6.434-12.385-10.094-26.43-10.094-41.319c0-18.026,5.31-35.398,15.358-50.271c2.835,0.736,5.908,1.416,9.15,2.052
		c-9.958,13.493-15.864,30.162-15.864,48.217c0,22.449,9.099,42.771,23.811,57.482s35.034,23.811,57.482,23.811
		s42.771-9.099,57.482-23.811s23.811-35.034,23.811-57.482c0-18.057-5.905-34.726-15.864-48.219c3.24-0.636,6.316-1.316,9.15-2.052
		c10.048,14.871,15.356,32.245,15.356,50.271C131.296,33.418,90.95,73.764,41.361,73.764z M104.479-23.585h9.363
		c0.246,2.437,0.372,4.91,0.372,7.411c0,2.155-0.095,4.287-0.277,6.393h-9.458h-0.539v0.539v30.388
		c-3.099,5.184-6.821,9.951-11.067,14.196C79.691,48.525,61.478,56.679,41.361,56.679s-38.33-8.155-51.513-21.338
		c-4.261-4.258-7.993-9.045-11.097-14.247V-9.242v-0.539h-0.536h-9.427c-0.182-2.106-0.277-4.238-0.277-6.393
		c0-2.501,0.126-4.974,0.372-7.411h9.33h0.536v-0.539v-29.313c1.962-3.289,4.192-6.395,6.629-9.322
		c16.084,2.424,35.529,3.761,55.992,3.761c20.45,0,39.885-1.336,55.971-3.761c2.424,2.912,4.643,6,6.598,9.268v29.37v0.539h0.541
		V-23.585z M105.018-24.66v-26.917c2.183,3.917,4.015,8.052,5.449,12.365c1.552,4.658,2.645,9.527,3.23,14.555h-8.678V-24.66z
		 M113.807-8.706c-0.531,5.21-1.611,10.261-3.183,15.091c-1.46,4.489-3.345,8.786-5.608,12.847V-8.706H113.807z M-22.324-8.706
		v27.936c-4.692-8.424-7.762-17.877-8.789-27.936H-22.324z M-31-24.66c1.124-9.676,4.143-18.775,8.676-26.915v26.915H-31z
		 M-15.862-62.951c-1.939,2.37-3.75,4.853-5.39,7.457v-0.049l-0.947,1.593c-0.087,0.149-0.177,0.298-0.264,0.446l-0.038,0.064
		l-0.123,0.21l-0.01,0.018c-0.105,0.18-0.208,0.359-0.31,0.539l-0.046,0.08l-0.121,0.213l-0.233,0.421l-0.167,0.303
		c-0.095,0.172-0.187,0.341-0.28,0.513l-0.028,0.051l-0.115,0.215c-0.11,0.208-0.218,0.416-0.328,0.623l-0.026,0.049
		c-3.425,6.595-5.887,13.773-7.196,21.343l-0.041,0.244c-0.036,0.221-0.074,0.441-0.11,0.664l-0.01,0.072l-0.038,0.246l-0.069,0.477
		l-0.003,0.01l-0.036,0.246l-0.01,0.067c-0.031,0.21-0.059,0.421-0.087,0.631l-0.005,0.044l-0.033,0.246l-0.003,0.01
		c-0.028,0.223-0.056,0.446-0.085,0.667l-0.008,0.064l-0.028,0.249c-0.026,0.218-0.051,0.436-0.074,0.657l-0.01,0.09l-0.049,0.446
		v0.005l-0.015,0.141l0,0c-0.244,2.437-0.367,4.91-0.367,7.411c0,2.155,0.092,4.287,0.274,6.393h0l0.01,0.115
		c0.367,4.204,1.085,8.311,2.127,12.285l0.064,0.244l0.003,0.01c0.056,0.213,0.113,0.426,0.172,0.639l0.054,0.198
		c0.056,0.203,0.115,0.408,0.172,0.611l0.069,0.241l0.015,0.054c0.062,0.21,0.123,0.418,0.187,0.626l0.013,0.041l0.074,0.241
		l0.003,0.01c0.049,0.156,0.097,0.313,0.146,0.469l0.074,0.239l0.077,0.239l0.077,0.239l0.064,0.198l0.015,0.046l0.08,0.244
		l0.021,0.062c0.064,0.19,0.128,0.382,0.195,0.572l0.031,0.095l0.085,0.241l0.169,0.482l0,0l0.085,0.241l0.023,0.062
		c0.069,0.192,0.139,0.382,0.21,0.572l0.033,0.087l0.09,0.241c0.064,0.172,0.131,0.344,0.195,0.516l0.113,0.277
		c0.077,0.198,0.156,0.395,0.233,0.593l0.018,0.041l0.095,0.236l0.19,0.469l0.154,0.367l0.2,0.475l0.149,0.344
		c0.08,0.182,0.159,0.364,0.239,0.544l0.105,0.239c0.085,0.187,0.167,0.372,0.251,0.559l0.018,0.041l0.105,0.231l0.008,0.013
		l0.215,0.462l0.164,0.346c0.074,0.154,0.146,0.308,0.221,0.462l0.182,0.375c0.08,0.162,0.159,0.321,0.239,0.482l0.151,0.298
		c0.085,0.164,0.169,0.331,0.254,0.495l0.015,0.028l0.118,0.226l0.026,0.051l0.241,0.454l0.167,0.313
		c0.087,0.159,0.172,0.321,0.259,0.48l0.198,0.357l0.226,0.405l0.215,0.38c0.08,0.139,0.159,0.28,0.241,0.418l0.192,0.328
		c0.082,0.139,0.164,0.28,0.246,0.418l0.957,1.614v-0.049c2.958,4.7,6.429,9.045,10.335,12.952
		c13.378,13.378,31.86,21.653,52.275,21.653s38.897-8.276,52.275-21.653s21.653-31.86,21.653-52.275
		c0-17.754-6.267-34.038-16.697-46.783c2.001-0.313,3.961-0.636,5.849-0.982c10.069,13.278,16.061,29.816,16.061,47.765
		c0,21.853-8.858,41.639-23.18,55.961c-14.322,14.322-34.108,23.18-55.961,23.18c-21.856,0-41.639-8.858-55.961-23.18
		s-23.18-34.108-23.18-55.961c0-17.949,5.992-34.487,16.061-47.765C-19.828-63.59-17.865-63.264-15.862-62.951z M135.429-99.114
		c0,5.118-10.423,9.838-27.274,13.329c-17.082,3.537-40.698,5.728-66.794,5.728s-49.712-2.191-66.794-5.728
		c-16.849-3.491-27.274-8.211-27.274-13.329s10.423-9.838,27.274-13.329c17.085-3.54,40.698-5.731,66.794-5.731
		s49.712,2.191,66.794,5.731C125.007-108.951,135.429-104.231,135.429-99.114z M108.371-113.507
		c-17.159-3.555-40.854-5.754-67.01-5.754c-26.158,0-49.851,2.201-67.01,5.754c-12.454,2.581-21.479,5.923-25.614,9.707
		c3.537-7.521,7.362-14.961,8.642-17.446l0.049-0.095c0.244-0.008,0.485-0.038,0.734-0.038H124.56c0.808,0,1.603,0.059,2.388,0.151
		c0.826,4.294,2.827,8.583,6.965,17.362C129.745-107.625,120.753-110.942,108.371-113.507z M-54.336,271.032
		c-5.074-5.074-8.224-12.075-8.224-19.77v-351.917c0-5.697,2.332-10.879,6.087-14.635c3.312-3.314,7.737-5.513,12.642-5.987
		c-1.778,3.458-6.69,13.057-10.492,21.517l-0.041,0.095l-0.005,0.105l-0.018,0.385l-0.003,0.021v0.01h0.003l0.021,19.732h-0.003
		c0,4.777,7.529,9.119,20.155,12.531c-10.099,15.014-15.451,32.53-15.451,50.707c0,15.138,3.735,29.413,10.302,41.986
		C-19.161,87.819-19.189,159.6-19.235,264.727l-0.005,14.527h-15.325C-42.264,279.256-49.262,276.106-54.336,271.032z
		 M145.285,251.262c0,7.696-3.15,14.696-8.224,19.77c-5.074,5.074-12.075,8.224-19.77,8.224h-15.204l-0.005-14.527
		c-0.046-105.324-0.077-177.177,20.235-239.264l-0.046-0.015c6.449-12.485,10.115-26.63,10.115-41.624
		c0-18.177-5.354-35.693-15.451-50.707c12.634-3.412,20.176-7.755,20.176-12.531v-19.742l-0.003-0.023l-0.018-0.385l-0.005-0.108
		l-0.046-0.097c-0.898-1.914-1.529-3.253-2.083-4.433c-4.015-8.522-6.016-12.783-6.867-16.851c4.289,0.746,8.145,2.801,11.105,5.762
		c3.756,3.756,6.09,8.937,6.09,14.635v351.917H145.285z"/>
	<circle cx="4.026" cy="-16.171" r="10.528"/>
	<circle cx="78.699" cy="-16.171" r="10.528"/>
	<path d="M96.237,193.923c-1.121-1.118-2.665-1.816-4.364-1.816H-9.149c-1.698,0-3.245,0.695-4.363,1.816h-0.003
		c-1.118,1.118-1.816,2.665-1.816,4.366v15.684c0,1.698,0.695,3.245,1.816,4.366h0.003c1.121,1.118,2.665,1.816,4.363,1.816H91.874
		c1.698,0,3.242-0.695,4.364-1.816h0.003c1.118-1.118,1.814-2.665,1.814-4.366v-15.684
		C98.053,196.589,97.358,195.042,96.237,193.923L96.237,193.923z M96.963,213.973c0,1.398-0.575,2.673-1.496,3.594l0,0
		c-0.923,0.921-2.196,1.493-3.596,1.493H-9.149c-1.401,0-2.673-0.572-3.596-1.493l0,0c-0.921-0.921-1.496-2.196-1.496-3.594v-15.684
		c0-1.398,0.575-2.673,1.496-3.594l0,0c0.923-0.921,2.196-1.496,3.596-1.496H91.874c1.401,0,2.673,0.572,3.596,1.496l0,0
		c0.921,0.921,1.496,2.196,1.496,3.594v15.684H96.963z"/>
	<path d="M26.39,107.92c1.927-0.133,3.871-0.026,5.805-0.033c0.51-0.003,0.764,0.062,0.557,0.703
		c-0.434,1.329-0.416,2.724-0.349,4.104c0.154,3.194,3.119,5.41,6.259,4.761c1.059-0.221,2.014-0.605,2.894-1.216
		c0.721-0.498,1.444-0.995,2.037-1.647c0.362-0.4,0.659-0.341,1.057-0.031c0.649,0.513,1.311,1.024,2.027,1.431
		c1.688,0.965,3.443,1.755,5.461,1.629c2.855-0.177,4.564-2.663,4.635-4.646c0.054-1.542-0.133-3.03-0.731-4.451
		c-0.223-0.531-0.031-0.644,0.454-0.641c1.198,0.01,2.401,0.062,3.594-0.013c2.481-0.151,4.153-2.124,4.102-4.176
		c-0.021-0.875-0.062-1.757,0.01-2.627c0.218-2.611-1.834-4.735-4.61-4.689c-1.383,0.023-2.765,0.015-4.148,0.003
		c-0.834-0.008-0.836-0.023-0.626-0.829c0.046-0.177,0.123-0.346,0.164-0.526c0.359-1.537,0.523-3.068,0.077-4.63
		c-0.557-1.947-2.596-3.886-5.025-3.771c-1.855,0.09-3.358,0.867-4.73,1.996c-0.711,0.585-1.349,1.252-2.019,1.885
		c-0.744,0.7-0.741,0.703-1.557,0.036c-0.108-0.087-0.192-0.2-0.303-0.282c-1.462-1.136-3.024-2.091-4.825-2.593
		c-3.222-0.9-6.336,1.419-6.418,4.751c-0.021,0.888,0.113,1.732,0.38,2.573c0.441,1.388,0.421,1.393-0.962,1.396
		c-1.198,0-2.399-0.038-3.594,0.008c-1.588,0.064-2.429,0.959-2.458,2.552c-0.018,1.059-0.003,2.121-0.005,3.181
		c0,0.967,0.082,1.944-0.018,2.901C23.338,106.82,24.767,108.033,26.39,107.92z M24.318,98.863c0.01-1.231,0.434-1.665,1.657-1.688
		c1.614-0.028,3.225-0.008,4.838-0.01c1.301-0.003,1.28,0.003,0.864-1.17c-0.382-1.083-0.729-2.173-0.711-3.35
		c0.049-3.048,2.632-5.01,5.556-4.184c1.621,0.457,3.012,1.344,4.317,2.381c0.18,0.144,0.357,0.29,0.531,0.441
		c1.226,1.067,1.231,1.072,2.406-0.136c0.836-0.859,1.719-1.665,2.67-2.393c0.89-0.682,1.883-1.154,3.004-1.293
		c2.711-0.339,4.812,1.519,5.046,4.266c0.123,1.447-0.144,2.837-0.6,4.202c-0.131,0.39-0.298,0.77-0.416,1.165
		c-0.062,0.21,0.059,0.364,0.292,0.31c1.957-0.446,3.94-0.169,5.913-0.2c2.314-0.036,3.697,1.365,3.725,3.643
		c0.013,0.967,0.023,1.937,0,2.904c-0.046,1.932-1.362,3.304-3.284,3.366c-1.565,0.051-3.135,0.005-4.702,0.023
		c-0.739,0.008-0.788,0.09-0.48,0.803c0.587,1.36,0.949,2.747,1.044,4.251c0.174,2.755-2.001,5.4-5.826,4.502
		c-1.734-0.405-3.227-1.306-4.599-2.416c-0.323-0.262-0.659-0.508-0.949-0.8c-0.375-0.377-0.68-0.372-1.041,0.018
		c-0.628,0.675-1.308,1.298-2.065,1.829c-0.985,0.693-2.039,1.277-3.242,1.457c-2.578,0.39-4.82-1.437-5.059-4.084
		c-0.139-1.529,0.041-3.027,0.454-4.502c0.287-1.034,0.269-1.049-0.849-1.059c-1.106-0.013-2.211-0.003-3.317-0.003
		c-1.152,0-2.306,0.018-3.458-0.005c-1.301-0.026-1.714-0.449-1.724-1.765C24.3,103.195,24.297,101.03,24.318,98.863z"/>
	<path d="M26.247,105.812c1.149-0.023,2.301-0.008,3.45-0.008c0-0.003,0-0.003,0-0.005c1.152,0,2.304-0.013,3.453,0.008
		c0.467,0.008,0.646-0.149,0.654-0.631c0.015-0.936-0.018-1.011-0.967-1.016c-1.519-0.01-3.037-0.021-4.556,0.003
		c-0.503,0.008-0.628-0.218-0.618-0.664c0.008-0.387,0.126-0.605,0.552-0.585c0.321,0.015,0.644,0,0.967,0
		c1.195,0,2.393,0.013,3.589-0.005c0.762-0.013,0.77-0.095,0.8-0.921c0.026-0.664-0.316-0.739-0.847-0.729
		c-1.057,0.023-2.116,0.008-3.176,0.005c-0.459,0-0.921-0.013-1.38,0c-0.472,0.015-0.495-0.287-0.5-0.634
		c-0.005-0.359,0.185-0.48,0.516-0.472c0.321,0.008,0.644-0.003,0.965-0.003c1.29,0,2.578-0.026,3.866,0.013
		c0.611,0.018,0.813-0.213,0.788-0.798c-0.021-0.493,0.005-0.882-0.703-0.872c-2.301,0.036-4.602,0.018-6.903,0.01
		c-0.446-0.003-0.672,0.139-0.667,0.631c0.015,1.98,0.018,3.958-0.003,5.939C25.523,105.604,25.708,105.822,26.247,105.812z"/>
	<path d="M34.894,105.147c-0.01,0.459,0.151,0.667,0.631,0.662c1.929-0.013,3.858-0.01,5.79-0.01c0.192,0,0.372-0.038,0.462-0.221
		c0.333-0.664-0.092-1.406-0.844-1.421c-1.057-0.023-2.114-0.023-3.171,0.003c-0.518,0.013-0.741-0.146-0.729-0.703
		c0.028-1.424-0.005-2.847,0.013-4.271c0.005-0.451-0.131-0.698-0.616-0.677c-0.321,0.013-0.644,0.013-0.965,0
		c-0.408-0.015-0.572,0.164-0.567,0.572c0.013,1.011,0.005,2.021,0.005,3.032c-0.003,0-0.003,0-0.003,0
		C34.899,103.123,34.915,104.137,34.894,105.147z"/>
	<path d="M53.172,108.516c-0.454,0.231-0.049,0.554,0.049,0.8c0.431,1.118,0.872,2.227,0.764,3.463
		c-0.113,1.28-0.97,2.098-2.242,2.15c-0.713,0.028-1.357-0.167-1.986-0.482c-1.542-0.775-2.827-1.896-4.048-3.081
		c-1.188-1.152-2.296-2.391-3.437-3.589c-0.28-0.292-0.487-0.698-0.988-0.649c-0.136,0.013-0.269,0.046-0.403,0.069
		c0.031,0.118,0.026,0.267,0.097,0.346c2.147,2.404,4.32,4.787,6.998,6.631c0.68,0.469,1.413,0.87,2.204,1.129
		c2.432,0.8,4.376-0.513,4.394-3.13c0.074-1.008-0.333-2.086-0.77-3.153C53.692,108.749,53.618,108.292,53.172,108.516z"/>
	<path d="M42.28,111.776c-0.351,0.364-0.711,0.721-1.072,1.075c-0.798,0.775-1.678,1.434-2.724,1.832
		c-1.439,0.546-2.652-0.082-3.124-1.557c-0.274-0.862-0.239-1.729-0.072-2.586c0.182-0.941,0.367-1.891,0.762-2.778
		c0.095-0.21,0.244-0.454-0.041-0.587c-0.29-0.139-0.528,0-0.641,0.316c-0.046,0.131-0.128,0.249-0.164,0.38
		c-0.316,1.195-0.677,2.386-0.646,3.648c0.018,0.367,0.01,0.739,0.059,1.103c0.254,1.86,1.729,3.089,3.443,2.776
		c2.006-0.367,3.391-1.742,4.746-3.135c0.146-0.151,0.092-0.328-0.069-0.475C42.577,111.643,42.449,111.602,42.28,111.776z"/>
	<path d="M34.189,97.136c0.228-0.121,0.108-0.313,0.036-0.469c-0.564-1.211-1.08-2.437-1.08-3.807c0-0.185-0.008-0.369,0-0.552
		c0.077-1.549,0.944-2.175,2.475-1.862c0.785,0.159,1.472,0.498,2.15,0.888c1.118,0.644,2.121,1.444,3.099,2.283
		c0.177,0.151,0.367,0.305,0.582,0.064c0.198-0.221,0.113-0.446-0.08-0.595c-0.687-0.539-1.375-1.077-2.091-1.578
		c-1.177-0.818-2.432-1.48-3.876-1.698c-1.275-0.192-2.401,0.518-2.747,1.734c-0.557,1.96,0.269,3.689,0.931,5.436
		C33.673,97.195,33.958,97.257,34.189,97.136z"/>
	<path d="M46.484,91.331c0.226-0.154,0.423-0.349,0.634-0.528c0.636-0.539,1.321-1,2.119-1.26c1.616-0.521,2.768,0.198,3.163,1.865
		c0.249,1.044-0.056,2.009-0.274,2.978c-0.2,0.888-0.582,1.737-0.88,2.604c-0.09,0.262-0.2,0.552,0.169,0.687
		c0.292,0.108,0.423-0.136,0.5-0.341c0.569-1.549,1.136-3.099,1.18-4.777c0-0.323,0.033-0.649-0.005-0.967
		c-0.177-1.47-1.321-2.66-2.655-2.747c-1.811-0.118-3.122,0.906-4.387,2.001c-0.072,0.062-0.095,0.282-0.044,0.367
		C46.107,91.377,46.312,91.449,46.484,91.331z"/>
	<path d="M38.378,101.936c0.062,0.085-0.21,0.318,0.103,0.369c0.154,0.026,0.208-0.139,0.274-0.259
		c0.354-0.644,0.705-1.29,1.077-1.926c1.226-2.111,2.627-4.102,4.161-6.003c0.154-0.19,0.418-0.413,0.072-0.687
		c-0.326-0.259-0.475-0.021-0.657,0.198c-1.801,2.163-3.376,4.476-4.751,6.934C38.414,100.999,38.396,101.428,38.378,101.936z"/>
	<path d="M46.584,105.601c-0.5,0.764-0.98,1.542-1.462,2.316c-0.095,0.154-0.198,0.313-0.251,0.485
		c-0.059,0.195,0.082,0.333,0.213,0.469c0.192,0.198,0.336,0.051,0.428-0.087c0.754-1.144,1.496-2.293,2.237-3.445
		c0.023-0.036,0.026-0.082,0.041-0.131c-0.005-0.269-0.218-0.241-0.39-0.249C46.951,104.94,46.779,105.304,46.584,105.601z"/>
	<path d="M44.953,93.214c0.485-0.033,0.975-0.546,0.947-0.995c-0.026-0.464-0.531-0.888-1.034-0.864
		c-0.482,0.021-0.911,0.536-0.849,1.021C44.07,92.785,44.573,93.24,44.953,93.214z"/>
	<path d="M52.559,107.979c0.423-0.033,0.813-0.464,0.823-0.913c0.01-0.459-0.503-0.949-0.977-0.934
		c-0.421,0.013-0.885,0.462-0.906,0.87C51.468,107.528,52.007,108.021,52.559,107.979z"/>
	<path d="M45.178,97.152c0.113-0.046,0.169-0.092,0.118-0.187c-0.221-0.408-0.544-0.716-0.926-0.944
		c-0.223,0.044-0.372,0.154-0.38,0.359C43.968,96.905,44.683,97.357,45.178,97.152z"/>
	<path d="M42.864,99.073c0.013,1.011,0.003,2.024,0.003,3.035c0,1.013-0.005,2.024,0.003,3.035c0.003,0.262-0.059,0.603,0.336,0.631
		c0.498,0.036,1.054,0.177,1.485-0.069c0.403-0.231,0.139-0.759,0.187-1.154c0.023-0.182,0.013-0.367,0.005-0.552
		c-0.013-0.336,0.146-0.518,0.482-0.516c1.195,0.003,2.391,0.01,3.586,0.018c0.451,0.005,0.649,0.318,0.739,0.693
		c0.062,0.262,0.074,0.549,0.051,0.818c-0.051,0.585,0.164,0.8,0.775,0.803c1.262,0.005,1.27,0.041,1.254-1.267
		c-0.005-0.5,0.072-1.018-0.231-1.475c-0.169-0.254-0.159-0.526-0.003-0.78c0.29-0.469,0.187-0.985,0.174-1.483
		c-0.036-1.416-0.687-2.191-2.068-2.245c-2.068-0.08-4.138-0.036-6.208-0.056C43.034,98.506,42.857,98.662,42.864,99.073z
		 M45.758,100.155c1.013-0.013,2.027,0.015,3.04-0.008c0.6-0.013,0.813,0.249,0.808,0.829c-0.005,0.544-0.126,0.893-0.764,0.864
		c-0.552-0.026-1.106-0.005-1.657-0.005c0,0.003,0,0.003,0,0.003c-0.508,0-1.013-0.023-1.519,0.008
		c-0.564,0.033-0.841-0.121-0.821-0.759C44.876,100.199,44.855,100.166,45.758,100.155z"/>
	<path d="M52.838,103.69c0.044,1.26,0.834,2.045,2.083,2.091c0.829,0.031,1.657,0.005,2.488,0.005v0.003
		c0.875,0,1.752,0.026,2.624-0.008c1.065-0.041,1.793-0.567,1.993-1.57c0.272-1.357,0.308-2.747-0.005-4.104
		c-0.233-1.021-0.921-1.549-1.988-1.572c-1.703-0.036-3.409-0.044-5.113,0.005c-1.247,0.036-2.037,0.859-2.086,2.109
		C52.8,101.661,52.805,102.677,52.838,103.69z M54.801,100.758c0.003-0.403,0.231-0.557,0.616-0.554
		c0.687,0.008,1.372,0.003,2.06,0.003c0,0,0,0,0-0.003c0.641,0,1.283,0.008,1.924-0.003c0.426-0.005,0.711,0.113,0.705,0.608
		c-0.01,0.916,0,1.832-0.005,2.747c-0.003,0.4-0.233,0.557-0.616,0.554c-1.375-0.005-2.747-0.003-4.12-0.008
		c-0.392-0.003-0.575-0.21-0.575-0.6C54.798,102.59,54.795,101.674,54.801,100.758z"/>
	<path d="M127.231,118.769c-0.623-0.405-1.293-0.608-2.009-0.608c-0.652,0-1.239,0.164-1.765,0.498
		c-0.526,0.331-0.967,0.836-1.324,1.513c-0.274,0.523-0.572,1.437-0.885,2.737c-0.313,1.301-0.544,2.145-0.693,2.524
		c-0.226,0.593-0.505,1.018-0.836,1.277c-0.333,0.259-0.721,0.385-1.167,0.385c-0.439,0-0.841-0.133-1.216-0.4
		c-0.372-0.267-0.662-0.677-0.875-1.224c-0.213-0.549-0.321-1.183-0.321-1.896c0-0.806,0.141-1.534,0.423-2.178
		c0.28-0.646,0.646-1.124,1.103-1.429c0.454-0.308,1.036-0.5,1.747-0.587l-0.156-1.77c-0.947,0.028-1.798,0.285-2.55,0.78
		c-0.752,0.495-1.313,1.175-1.688,2.042c-0.375,0.87-0.562,1.944-0.562,3.227c0,1.016,0.185,1.924,0.559,2.732
		c0.372,0.811,0.89,1.431,1.555,1.865c0.67,0.431,1.38,0.649,2.134,0.649c0.762,0,1.434-0.198,2.016-0.59
		c0.582-0.392,1.067-1.003,1.447-1.829c0.259-0.567,0.559-1.614,0.906-3.14s0.682-2.47,1.013-2.832
		c0.328-0.369,0.746-0.552,1.257-0.552c0.587,0,1.088,0.262,1.503,0.78s0.623,1.344,0.623,2.483c0,1.09-0.228,1.914-0.687,2.47
		c-0.459,0.559-1.134,0.888-2.032,0.983l0.136,1.801c0.831-0.033,1.578-0.267,2.234-0.695c0.659-0.434,1.157-1.049,1.496-1.855
		c0.339-0.806,0.508-1.732,0.508-2.781c0-0.954-0.162-1.824-0.482-2.604C128.326,119.767,127.851,119.174,127.231,118.769z"/>
	<path d="M114.704,142.723v1.809l14.183,3.891v-1.885l-9.114-2.224c-1.162-0.29-2.191-0.526-3.086-0.705
		c1.565-0.226,3.242-0.593,5.02-1.106l7.18-2.032v-2.265l-9.579-2.699c-0.231-0.064-1.106-0.277-2.619-0.639
		c0.959-0.167,1.929-0.369,2.901-0.6l9.299-2.157v-1.924l-14.183,3.763v1.916l10.807,3.009c0.459,0.128,1.013,0.267,1.665,0.416
		c-0.208,0.046-0.762,0.192-1.665,0.446L114.704,142.723z"/>
	<rect x="114.704" y="150.496" width="14.183" height="1.875"/>
	<polygon points="114.704,161.167 127.215,161.167 127.215,165.859 128.888,165.859 128.888,154.616 127.215,154.616 
		127.215,159.29 114.704,159.29 	"/>
	<path d="M125.771,168.089c-1.1-0.564-2.391-0.847-3.866-0.847c-1.354,0-2.622,0.251-3.802,0.749
		c-1.183,0.5-2.083,1.229-2.706,2.188c-0.621,0.959-0.934,2.201-0.934,3.73c0,1.478,0.405,2.727,1.216,3.75
		c0.811,1.024,1.986,1.732,3.527,2.124l0.475-1.878c-1.193-0.259-2.091-0.752-2.699-1.48c-0.608-0.729-0.908-1.619-0.908-2.67
		c0-0.864,0.221-1.665,0.667-2.406c0.446-0.744,1.118-1.29,2.016-1.642c0.903-0.351,1.955-0.528,3.158-0.528
		c0.936,0,1.844,0.151,2.727,0.446c0.88,0.298,1.58,0.811,2.104,1.544c0.521,0.731,0.785,1.644,0.785,2.732
		c0,0.949-0.236,1.737-0.705,2.363c-0.472,0.623-1.224,1.103-2.255,1.431l0.436,1.85c1.308-0.38,2.324-1.054,3.048-2.021
		c0.723-0.967,1.085-2.163,1.085-3.581c0-1.252-0.285-2.401-0.857-3.44C127.705,169.456,126.869,168.653,125.771,168.089z"/>
	<polygon points="114.704,184.032 121.392,184.032 121.392,191.404 114.704,191.404 114.704,193.279 128.888,193.279 
		128.888,191.404 123.065,191.404 123.065,184.032 128.888,184.032 128.888,182.154 114.704,182.154 	"/>
	<path d="M117.136,202.481c-0.867,0.362-1.531,0.965-1.986,1.809c-0.459,0.847-0.69,1.934-0.69,3.26c0,1.367,0.264,2.473,0.79,3.314
		c0.526,0.841,1.208,1.424,2.047,1.747s1.973,0.482,3.396,0.482h8.193v-1.875h-8.183c-1.78,0-2.983-0.292-3.609-0.882
		c-0.626-0.587-0.939-1.57-0.939-2.95c0-0.805,0.159-1.488,0.477-2.047c0.316-0.557,0.764-0.949,1.347-1.18
		c0.585-0.228,1.493-0.344,2.727-0.344h8.183v-1.875h-8.193C119.191,201.94,118.006,202.122,117.136,202.481z"/>
	<polygon points="114.704,218.001 125.85,218.001 114.704,225.45 114.704,227.377 128.888,227.377 128.888,225.576 117.755,225.576 
		128.888,218.126 128.888,216.202 114.704,216.202 	"/>
	<rect x="114.704" y="230.853" width="14.183" height="1.875"/>
	<polygon points="127.215,239.649 114.704,239.649 114.704,241.524 127.215,241.524 127.215,246.216 128.888,246.216 
		128.888,234.972 127.215,234.972 	"/>
	<path d="M86.156,207.434c-0.251-0.226-0.618-0.457-1.103-0.688c1.324-0.185,2.301-0.608,2.935-1.28
		c0.634-0.672,0.952-1.498,0.952-2.478c0-0.759-0.19-1.452-0.572-2.08c-0.382-0.626-0.893-1.065-1.534-1.311
		c-0.641-0.249-1.575-0.372-2.806-0.372h-6.121v13.809h1.832v-6.134h2.116c0.472,0,0.811,0.023,1.016,0.064
		c0.282,0.072,0.562,0.192,0.831,0.367c0.274,0.177,0.582,0.482,0.929,0.923c0.344,0.441,0.785,1.072,1.316,1.906l1.824,2.873h2.283
		l-2.388-3.761C87.192,208.537,86.689,207.924,86.156,207.434z M83.66,205.321h-3.922v-4.571h4.364c1.018,0,1.765,0.21,2.237,0.631
		c0.472,0.421,0.708,0.962,0.708,1.614c0,0.446-0.123,0.857-0.367,1.236c-0.241,0.382-0.598,0.659-1.067,0.829
		C85.145,205.233,84.496,205.321,83.66,205.321z"/>
	<path d="M2.734,199.908c-1.026-0.608-2.173-0.913-3.448-0.913c-1.947,0-3.535,0.646-4.766,1.942
		c-1.231,1.295-1.85,3.089-1.85,5.377c0,1.211,0.264,2.36,0.79,3.443c0.528,1.088,1.306,1.942,2.327,2.568
		c1.026,0.626,2.186,0.941,3.486,0.941c1.198,0,2.316-0.282,3.355-0.852c1.034-0.567,1.837-1.401,2.401-2.506
		c0.567-1.103,0.849-2.355,0.849-3.756c0-1.38-0.269-2.614-0.805-3.699C4.537,201.362,3.755,200.516,2.734,199.908z M2.659,210.256
		c-0.89,0.965-2.019,1.447-3.394,1.447c-1.349,0-2.473-0.48-3.366-1.434c-0.893-0.954-1.339-2.263-1.339-3.925
		c0-2.073,0.464-3.553,1.398-4.438c0.931-0.888,2.045-1.331,3.337-1.331c0.908,0,1.729,0.231,2.46,0.69s1.288,1.108,1.665,1.944
		c0.38,0.836,0.569,1.816,0.569,2.937C3.991,207.924,3.547,209.292,2.659,210.256z"/>
	<path d="M57.371,199.908c-1.026-0.608-2.173-0.913-3.448-0.913c-1.947,0-3.535,0.646-4.766,1.942
		c-1.231,1.295-1.85,3.089-1.85,5.377c0,1.211,0.264,2.36,0.79,3.443c0.528,1.088,1.306,1.942,2.327,2.568
		c1.026,0.626,2.186,0.941,3.486,0.941c1.198,0,2.316-0.282,3.355-0.852c1.034-0.567,1.837-1.401,2.401-2.506
		c0.567-1.103,0.849-2.355,0.849-3.756c0-1.38-0.269-2.614-0.808-3.699C59.174,201.362,58.392,200.516,57.371,199.908z
		 M57.297,210.256c-0.89,0.965-2.019,1.447-3.394,1.447c-1.349,0-2.473-0.48-3.366-1.434c-0.893-0.954-1.339-2.263-1.339-3.925
		c0-2.073,0.467-3.553,1.398-4.438c0.931-0.888,2.045-1.331,3.337-1.331c0.911,0,1.729,0.231,2.463,0.69
		c0.731,0.459,1.285,1.108,1.665,1.944c0.38,0.836,0.569,1.816,0.569,2.937C58.628,207.924,58.184,209.292,57.297,210.256z"/>
	<path d="M43.18,200.413c-0.559-0.475-1.234-0.808-2.024-0.99c-0.564-0.131-1.385-0.195-2.458-0.195h-4.756v13.809h4.982
		c0.836,0,1.575-0.077,2.222-0.236c0.641-0.159,1.193-0.39,1.644-0.695c0.457-0.303,0.875-0.721,1.26-1.249
		c0.382-0.531,0.698-1.203,0.941-2.011c0.244-0.811,0.367-1.739,0.367-2.786c0-1.231-0.18-2.329-0.544-3.286
		C44.452,201.814,43.909,201.029,43.18,200.413z M43.103,208.691c-0.241,0.734-0.58,1.319-1.008,1.752
		c-0.31,0.308-0.721,0.546-1.239,0.716c-0.516,0.172-1.231,0.254-2.139,0.254h-2.945v-10.569h2.896c1.085,0,1.873,0.092,2.363,0.282
		c0.677,0.264,1.254,0.785,1.726,1.562c0.472,0.777,0.711,1.891,0.711,3.337C43.465,207.073,43.344,207.96,43.103,208.691z"/>
	<polygon points="21.116,200.847 25.667,200.847 25.667,213.034 27.501,213.034 27.501,200.847 32.052,200.847 32.052,199.226 
		21.116,199.226 	"/>
	<path d="M72.373,199.908c-1.026-0.608-2.173-0.913-3.448-0.913c-1.947,0-3.535,0.646-4.766,1.942
		c-1.231,1.295-1.85,3.089-1.85,5.377c0,1.211,0.264,2.36,0.79,3.443c0.526,1.088,1.306,1.942,2.327,2.568
		c1.026,0.626,2.186,0.941,3.486,0.941c1.198,0,2.316-0.282,3.355-0.852c1.034-0.567,1.834-1.401,2.401-2.506
		c0.567-1.103,0.849-2.355,0.849-3.756c0-1.38-0.269-2.614-0.808-3.699C74.176,201.362,73.394,200.516,72.373,199.908z
		 M72.298,210.256c-0.89,0.965-2.019,1.447-3.394,1.447c-1.349,0-2.473-0.48-3.366-1.434c-0.893-0.954-1.339-2.263-1.339-3.925
		c0-2.073,0.467-3.553,1.398-4.438c0.931-0.888,2.045-1.331,3.337-1.331c0.911,0,1.729,0.231,2.463,0.69
		c0.731,0.459,1.285,1.108,1.665,1.944c0.38,0.836,0.569,1.816,0.569,2.937C73.63,207.924,73.186,209.292,72.298,210.256z"/>
	<path d="M17.273,207.196c0,1.737-0.282,2.906-0.852,3.517c-0.569,0.608-1.524,0.913-2.86,0.913c-0.78,0-1.442-0.154-1.983-0.464
		c-0.541-0.305-0.921-0.746-1.144-1.316c-0.221-0.567-0.333-1.452-0.333-2.652v-7.97H8.269v7.975c0,1.462,0.177,2.617,0.528,3.461
		c0.351,0.847,0.936,1.488,1.757,1.937c0.821,0.446,1.878,0.667,3.166,0.667c1.331,0,2.401-0.257,3.219-0.767
		c0.818-0.51,1.383-1.177,1.698-1.991c0.313-0.816,0.469-1.919,0.469-3.307v-7.975h-1.832v7.973H17.273z"/>
</g>
</svg>
