<?xml version="1.0" standalone="no"?>
<!DOCTYPE svg PUBLIC "-//W3C//DTD SVG 20010904//EN"
 "http://www.w3.org/TR/2001/REC-SVG-20010904/DTD/svg10.dtd">
<svg version="1.0" xmlns="http://www.w3.org/2000/svg"
 width="256.000000pt" height="197.000000pt" viewBox="0 0 256.000000 197.000000"
 preserveAspectRatio="xMidYMid meet">
<metadata>
Created by potrace 1.13, written by Peter Selinger 2001-2015
</metadata>
<g transform="translate(0.000000,197.000000) scale(0.100000,-0.100000)"
fill="#000000" stroke="none">
<path d="M1530 1964 c-96 -19 -209 -72 -354 -167 l-100 -65 -50 30 c-91 53
-250 126 -305 138 -29 7 -85 10 -125 8 -112 -8 -189 -55 -241 -150 -28 -49
-30 -60 -29 -153 0 -87 4 -111 31 -182 l32 -83 -155 0 c-175 0 -204 -8 -223
-61 -14 -41 -15 -520 -1 -570 20 -71 28 -74 255 -77 l203 -3 -11 -37 c-6 -20
-11 -102 -12 -182 0 -165 15 -233 70 -304 47 -62 103 -89 196 -94 112 -7 208
19 357 94 l124 63 74 -45 c89 -54 172 -89 261 -110 55 -13 82 -13 147 -5 103
14 171 46 239 113 46 44 59 64 76 122 34 109 24 224 -29 343 l-19 43 208 0
c163 0 217 3 254 16 62 21 134 85 147 132 13 50 13 377 -1 427 -14 50 -40 84
-87 112 -36 22 -44 23 -325 23 -270 0 -288 1 -283 18 34 115 51 218 51 312 0
94 -3 111 -26 155 -27 53 -72 89 -149 119 -45 18 -154 28 -200 20z m202 -50
c56 -18 112 -76 127 -131 24 -86 6 -218 -55 -401 -19 -57 -34 -106 -34 -108 0
-2 146 -4 324 -4 319 0 324 0 356 -22 72 -50 75 -59 75 -261 0 -207 -1 -210
-85 -263 l-45 -29 -277 -3 -276 -3 39 -83 c76 -162 87 -293 35 -401 -50 -101
-146 -156 -274 -157 -136 -2 -253 47 -389 160 -69 58 -72 60 -88 42 -29 -32
-151 -110 -229 -145 -207 -96 -357 -46 -411 135 -27 92 -16 315 20 432 6 17
-4 18 -205 18 -211 0 -211 0 -235 25 l-25 24 0 244 c0 314 -21 287 220 287
l179 0 -44 106 c-79 187 -82 294 -11 387 108 142 302 119 561 -67 74 -53 93
-62 106 -53 9 7 52 43 95 80 220 191 378 247 546 191z"/>
<path d="M1486 1800 c-33 -10 -87 -38 -122 -62 -59 -39 -62 -44 -48 -60 15
-16 19 -14 68 24 106 84 206 109 273 68 38 -23 49 -42 63 -108 19 -87 -30
-247 -107 -349 l-24 -33 35 0 c32 0 38 4 60 48 117 233 110 415 -18 473 -52
23 -105 23 -180 -1z"/>
<path d="M542 1700 c-59 -36 -74 -73 -69 -175 3 -69 10 -107 33 -165 26 -66
33 -75 57 -78 l27 -3 -34 68 c-48 98 -59 137 -54 204 3 44 10 65 28 84 85 91
290 33 470 -135 41 -38 45 -40 57 -24 19 26 17 29 -29 69 -167 143 -389 214
-486 155z"/>
<path d="M1092 1445 c-128 -175 -182 -271 -182 -323 l0 -45 49 81 c65 106 121
190 192 283 56 74 57 76 38 93 -19 16 -22 12 -97 -89z"/>
<path d="M1955 1203 c-74 -19 -95 -67 -95 -222 0 -135 10 -174 55 -209 26 -21
37 -22 241 -22 l212 0 31 26 c43 36 53 81 49 221 -3 104 -6 126 -24 150 -41
56 -71 63 -269 62 -99 -1 -189 -4 -200 -6z m355 -115 c17 -19 20 -35 20 -111
0 -101 -7 -121 -51 -136 -41 -14 -207 -14 -248 0 -44 15 -51 35 -51 138 0 130
1 131 175 131 125 0 136 -1 155 -22z"/>
<path d="M150 975 l0 -225 251 0 250 0 -3 48 -3 47 -177 3 -178 2 0 35 0 35
178 2 177 3 0 45 0 45 -177 3 -178 2 0 35 0 35 178 2 177 3 3 53 3 52 -250 0
-251 0 0 -225z"/>
<path d="M720 975 l0 -225 230 0 230 0 0 50 0 50 -160 0 -160 0 0 175 0 175
-70 0 -70 0 0 -225z"/>
<path d="M1230 975 l0 -225 70 0 70 0 0 60 0 60 133 0 c90 0 137 -4 145 -12 7
-7 12 -34 12 -60 l0 -48 65 0 65 0 0 88 c0 81 -2 90 -25 112 l-24 23 19 25
c14 17 20 40 20 75 0 44 -4 53 -39 88 l-39 39 -236 0 -236 0 0 -225z m398 123
c7 -7 12 -28 12 -48 0 -56 -10 -60 -152 -60 l-128 0 0 60 0 60 128 0 c86 0
132 -4 140 -12z"/>
<path d="M644 636 c-28 -62 -54 -171 -54 -232 0 -95 52 -194 124 -231 102 -53
282 15 386 147 26 33 30 43 20 55 -10 12 -24 2 -83 -59 -89 -91 -159 -129
-239 -130 -42 -1 -63 4 -84 20 -106 78 -105 226 3 472 3 8 -4 12 -21 12 -23 0
-31 -8 -52 -54z"/>
<path d="M920 682 c0 -16 306 -318 390 -385 47 -38 127 -89 179 -115 89 -45
98 -47 177 -47 97 0 125 15 162 86 21 39 23 54 18 134 -2 50 -10 107 -17 127
l-12 37 -18 -23 c-18 -22 -18 -25 1 -75 11 -29 20 -76 20 -107 0 -207 -192
-218 -447 -25 -45 34 -155 138 -246 231 -112 116 -171 170 -186 170 -11 0 -21
-4 -21 -8z"/>
</g>
</svg>
